<svg width="447" height="381" viewBox="0 0 447 381" fill="none" xmlns="http://www.w3.org/2000/svg" class="jss40"><g><path d="M344.453 367.083L338.106 369.178L326.993 345.729L336.361 342.637L344.453 367.083Z" fill="#FFB8B8"></path><path d="M333.599 369.764L345.841 365.724L348.388 373.42L328.439 380.003C328.105 378.993 327.973 377.926 328.051 376.865C328.129 375.803 328.416 374.767 328.895 373.817C329.374 372.866 330.036 372.019 330.844 371.323C331.651 370.628 332.587 370.098 333.599 369.764Z" fill="#3F3D56"></path><path d="M302.727 373.879L296.042 373.878L292.862 348.132L302.729 348.132L302.727 373.879Z" fill="#FFB8B8"></path><path d="M291.071 371.209H303.964V379.314H282.953C282.953 378.25 283.163 377.196 283.571 376.212C283.979 375.229 284.577 374.335 285.331 373.583C286.085 372.83 286.979 372.233 287.964 371.826C288.949 371.418 290.005 371.209 291.071 371.209Z" fill="#3F3D56"></path><path d="M296.343 277.999L296.002 279.505C291.396 299.873 289.756 329.509 291.131 350.344L292.194 366.439C292.231 366.991 292.476 367.508 292.88 367.885C293.284 368.263 293.817 368.473 294.371 368.473H302.385C302.92 368.473 303.435 368.278 303.835 367.923C304.234 367.568 304.489 367.08 304.552 366.55L310.772 313.757C310.83 313.262 311.057 312.802 311.414 312.454C311.77 312.106 312.236 311.89 312.733 311.843C313.229 311.796 313.727 311.921 314.143 312.196C314.559 312.471 314.868 312.88 315.018 313.356L331.14 361.063C331.272 361.482 331.528 361.85 331.874 362.121C332.221 362.392 332.641 362.552 333.079 362.58L345.322 363.369C345.675 363.392 346.029 363.328 346.352 363.184C346.675 363.04 346.959 362.819 347.177 362.541C347.396 362.263 347.544 361.936 347.608 361.588C347.672 361.24 347.65 360.882 347.544 360.545L340.175 340.314C334.48 322.157 331.42 294.569 331.086 275.546C331.08 275.246 331.013 274.95 330.888 274.677C330.762 274.404 330.582 274.16 330.358 273.96C330.134 273.76 329.87 273.609 329.585 273.515C329.299 273.422 328.997 273.388 328.698 273.416L298.264 276.31C297.806 276.354 297.374 276.541 297.029 276.844C296.684 277.147 296.444 277.551 296.343 277.999Z" fill="#3F3D56"></path><path d="M313.962 193.558C321.359 193.558 327.355 187.571 327.355 180.186C327.355 172.8 321.359 166.813 313.962 166.813C306.565 166.813 300.569 172.8 300.569 180.186C300.569 187.571 306.565 193.558 313.962 193.558Z" fill="#A0616A"></path><path d="M305.978 282.588C303.31 282.582 300.645 282.442 297.992 282.167C297.14 282.075 296.357 281.653 295.813 280.992C295.268 280.331 295.003 279.484 295.076 278.631L299.642 234.581C300.743 222.121 302.444 210.094 311.052 199.907C311.344 199.562 311.705 199.281 312.112 199.082C312.518 198.882 312.961 198.769 313.414 198.749L313.737 198.737C317.133 198.596 318.697 198.719 319.138 199.159L321.506 201.489C335.947 212.153 336.547 279.707 332.989 278.376C332.301 278.119 324.082 278.377 323.51 278.767C318.871 281.924 311.415 282.587 305.978 282.588Z" fill="#FFDA41"></path><path d="M252.664 258.296C253.005 257.571 253.501 256.93 254.117 256.418C254.733 255.906 255.454 255.534 256.229 255.33C257.004 255.126 257.815 255.094 258.603 255.237C259.392 255.379 260.14 255.693 260.794 256.155L276.643 244.835L277.027 254.938L261.918 264.139C261.068 265.185 259.862 265.883 258.53 266.101C257.198 266.319 255.833 266.042 254.692 265.322C253.551 264.601 252.715 263.488 252.341 262.193C251.967 260.899 252.082 259.512 252.664 258.296Z" fill="#A0616A"></path><path d="M268.503 260.568L263.135 251.133L312.03 215.932C313.133 215.137 314.389 214.579 315.718 214.291C317.048 214.003 318.422 213.991 319.756 214.258C321.09 214.524 322.355 215.062 323.471 215.839C324.587 216.615 325.531 217.613 326.243 218.77C326.956 219.927 327.422 221.218 327.612 222.563C327.802 223.908 327.712 225.277 327.348 226.586C326.984 227.895 326.354 229.115 325.497 230.169C324.639 231.224 323.574 232.09 322.366 232.715L268.503 260.568Z" fill="#FFDA41"></path><path d="M320.137 191.656C320.591 192.103 321.19 192.371 321.826 192.412C322.461 192.453 323.09 192.263 323.597 191.878C326.754 189.542 329.525 186.634 331.165 183.087C333.044 179.022 333.253 174.035 330.988 170.172C329.073 166.906 325.691 164.799 322.32 163.069C321.011 162.331 319.602 161.789 318.136 161.459C316.654 161.132 315.103 161.382 313.8 162.157C313.162 162.556 312.659 163.138 312.358 163.827C312.056 164.516 311.969 165.279 312.109 166.018C310.49 164.173 308.416 162.783 306.093 161.986C304.631 161.414 303.029 161.298 301.499 161.653C299.36 162.259 297.799 164.157 296.945 166.206C296.254 167.765 296.015 169.486 296.256 171.174C296.383 172.014 296.685 172.818 297.142 173.534C297.6 174.25 298.203 174.862 298.912 175.331C300.681 176.423 302.937 176.345 304.968 175.898C306.999 175.452 308.964 174.676 311.035 174.479C313.105 174.283 315.41 174.798 316.67 176.45C317.558 177.614 317.785 179.134 317.984 180.582L319.02 188.117C319.105 189.207 319.384 190.273 319.844 191.265C319.923 191.408 320.022 191.54 320.137 191.656Z" fill="#3F3D56"></path><path d="M349.01 285.142C348.36 284.673 347.821 284.068 347.431 283.369C347.041 282.669 346.809 281.893 346.752 281.095C346.694 280.297 346.813 279.495 347.1 278.748C347.386 278 347.833 277.324 348.409 276.768L340.204 259.121L350.219 260.615L356.475 277.144C357.347 278.173 357.811 279.485 357.779 280.832C357.746 282.18 357.22 283.468 356.3 284.454C355.38 285.44 354.13 286.054 352.786 286.181C351.442 286.308 350.099 285.938 349.01 285.142V285.142Z" fill="#A0616A"></path><path d="M354.849 266.588L345.4 271.947L310.144 223.127C309.349 222.026 308.789 220.772 308.501 219.445C308.212 218.117 308.201 216.745 308.468 215.413C308.735 214.081 309.274 212.819 310.051 211.704C310.829 210.59 311.828 209.647 312.987 208.936C314.146 208.225 315.439 207.759 316.786 207.57C318.133 207.38 319.504 207.469 320.815 207.833C322.126 208.196 323.347 208.825 324.404 209.681C325.46 210.537 326.328 211.602 326.953 212.808L354.849 266.588Z" fill="#FFDA41"></path><path d="M268.385 90.8688H266.302V33.8699C266.302 25.1202 262.821 16.7289 256.624 10.5419C250.428 4.35495 242.024 0.879155 233.261 0.87915H112.312C103.549 0.87915 95.1449 4.35495 88.9485 10.5419C82.7521 16.7289 79.271 25.1202 79.271 33.8699V346.576C79.271 355.325 82.7521 363.717 88.9485 369.904C95.1449 376.091 103.549 379.566 112.312 379.566H233.261C242.024 379.566 250.428 376.09 256.624 369.903C262.82 363.717 266.301 355.325 266.301 346.576V131.442H268.385L268.385 90.8688Z" fill="#DBDBDB"></path><path d="M235.386 9.67041H219.599C220.325 11.4478 220.602 13.3762 220.406 15.2857C220.21 17.1952 219.546 19.0273 218.474 20.6204C217.401 22.2135 215.953 23.5189 214.256 24.4214C212.56 25.3239 210.667 25.7959 208.744 25.7959H139.454C137.532 25.7958 135.639 25.3236 133.942 24.421C132.246 23.5184 130.797 22.2131 129.725 20.62C128.653 19.0269 127.989 17.1949 127.793 15.2855C127.597 13.376 127.874 11.4477 128.6 9.67041H113.855C107.31 9.67041 101.034 12.2661 96.4069 16.8865C91.7795 21.5068 89.1798 27.7734 89.1798 34.3076V346.559C89.1798 353.094 91.7795 359.36 96.4069 363.98C101.034 368.601 107.31 371.197 113.855 371.197H235.386C241.93 371.197 248.206 368.601 252.833 363.98C257.461 359.36 260.06 353.094 260.06 346.559V34.3071C260.06 27.773 257.461 21.5065 252.833 16.8863C248.206 12.266 241.93 9.67041 235.386 9.67041H235.386Z" fill="white"></path><path d="M173.96 194.336C162.636 194.336 151.566 190.983 142.151 184.702C132.735 178.42 125.396 169.491 121.063 159.045C116.729 148.599 115.595 137.105 117.805 126.015C120.014 114.926 125.467 104.739 133.474 96.7442C141.482 88.7491 151.683 83.3043 162.79 81.0985C173.896 78.8927 185.409 80.0248 195.871 84.3517C206.333 88.6786 215.275 96.006 221.566 105.407C227.857 114.808 231.215 125.861 231.215 137.168C231.198 152.325 225.16 166.856 214.427 177.573C203.693 188.29 189.14 194.319 173.96 194.336ZM173.96 81.0889C162.852 81.0889 151.993 84.3779 142.756 90.54C133.52 96.702 126.321 105.46 122.07 115.708C117.819 125.955 116.707 137.23 118.874 148.109C121.041 158.987 126.391 168.979 134.245 176.822C142.1 184.665 152.108 190.006 163.003 192.17C173.898 194.334 185.19 193.223 195.453 188.978C205.716 184.734 214.488 177.546 220.659 168.324C226.831 159.102 230.125 148.259 230.125 137.168C230.108 122.3 224.185 108.046 213.656 97.5327C203.127 87.0195 188.851 81.1057 173.96 81.0889Z" fill="#3F3D56"></path><path d="M195.463 120.226C200.367 116.089 203.345 109.554 202.564 103.191C201.783 96.8291 196.945 90.9802 190.669 89.6291C184.394 88.278 177.24 92.018 175.334 98.1389C174.285 86.338 173.076 74.0427 166.793 63.9932C161.103 54.8936 151.248 48.3825 140.568 47.2177C129.888 46.0528 118.643 50.4523 111.982 58.8692C105.321 67.2861 103.69 79.5226 108.355 89.1859C111.792 96.3046 118.123 101.602 124.757 105.912C145.921 119.663 172.175 124.309 197.157 120.638L195.463 120.226Z" fill="#DBDBDB"></path><path d="M122.875 50.5722C131.688 57.7392 139.772 65.7549 147.012 74.5034C158.342 88.1479 167.51 103.446 174.198 119.864C174.687 121.062 172.739 121.583 172.255 120.399C161.314 93.7156 143.846 70.197 121.451 51.9944C120.445 51.1768 121.878 49.7613 122.875 50.5722Z" fill="white"></path><path d="M124.905 250.22C128.217 250.22 130.903 247.538 130.903 244.231C130.903 240.923 128.217 238.242 124.905 238.242C121.592 238.242 118.906 240.923 118.906 244.231C118.906 247.538 121.592 250.22 124.905 250.22Z" fill="#3F3D56"></path><path d="M224.932 249.151H148.591C147.434 249.151 146.325 248.692 145.507 247.875C144.689 247.058 144.229 245.95 144.229 244.795C144.229 243.64 144.689 242.532 145.507 241.715C146.325 240.898 147.434 240.44 148.591 240.44H224.932C226.089 240.44 227.198 240.898 228.016 241.715C228.835 242.532 229.294 243.64 229.294 244.795C229.294 245.95 228.835 247.058 228.016 247.875C227.198 248.692 226.089 249.151 224.932 249.151Z" fill="#C2D1D9"></path><path d="M201.623 248.157H148.644C147.473 248.157 146.35 247.693 145.522 246.866C144.694 246.039 144.229 244.918 144.229 243.749C144.229 242.58 144.694 241.459 145.522 240.632C146.35 239.805 147.473 239.341 148.644 239.341H201.623C202.794 239.341 203.917 239.805 204.745 240.632C205.573 241.459 206.038 242.58 206.038 243.749C206.038 244.918 205.573 246.039 204.745 246.866C203.917 247.693 202.794 248.157 201.623 248.157Z" fill="#1550B4"></path><path d="M124.905 276.594C128.217 276.594 130.903 273.912 130.903 270.605C130.903 267.297 128.217 264.615 124.905 264.615C121.592 264.615 118.906 267.297 118.906 270.605C118.906 273.912 121.592 276.594 124.905 276.594Z" fill="#3F3D56"></path><path d="M224.932 274.426H148.591C147.434 274.426 146.325 273.967 145.507 273.15C144.689 272.333 144.229 271.225 144.229 270.07C144.229 268.915 144.689 267.807 145.507 266.99C146.325 266.173 147.434 265.714 148.591 265.714H224.932C226.089 265.714 227.198 266.173 228.016 266.99C228.835 267.807 229.294 268.915 229.294 270.07C229.294 271.225 228.835 272.333 228.016 273.15C227.198 273.967 226.089 274.426 224.932 274.426Z" fill="#C2D1D9"></path><path d="M124.905 302.967C128.217 302.967 130.903 300.286 130.903 296.978C130.903 293.67 128.217 290.989 124.905 290.989C121.592 290.989 118.906 293.67 118.906 296.978C118.906 300.286 121.592 302.967 124.905 302.967Z" fill="#3F3D56"></path><path d="M224.932 300.799H148.591C147.434 300.799 146.325 300.34 145.507 299.523C144.689 298.707 144.229 297.599 144.229 296.444C144.229 295.288 144.689 294.18 145.507 293.364C146.325 292.547 147.434 292.088 148.591 292.088H224.932C226.089 292.088 227.198 292.547 228.016 293.364C228.835 294.18 229.294 295.288 229.294 296.444C229.294 297.599 228.835 298.707 228.016 299.523C227.198 300.34 226.089 300.799 224.932 300.799Z" fill="#C2D1D9"></path><path d="M184.174 274.531H148.644C147.473 274.531 146.35 274.066 145.522 273.24C144.694 272.413 144.229 271.292 144.229 270.123C144.229 268.953 144.694 267.832 145.522 267.005C146.35 266.179 147.473 265.714 148.644 265.714H184.174C185.345 265.714 186.468 266.179 187.296 267.005C188.123 267.832 188.589 268.953 188.589 270.123C188.589 271.292 188.123 272.413 187.296 273.24C186.468 274.066 185.345 274.531 184.174 274.531Z" fill="#1550B4"></path><path d="M215.8 300.904H148.644C147.473 300.904 146.35 300.44 145.522 299.613C144.694 298.786 144.229 297.665 144.229 296.496C144.229 295.327 144.694 294.206 145.522 293.379C146.35 292.552 147.473 292.088 148.644 292.088H215.8C216.971 292.088 218.094 292.552 218.922 293.379C219.75 294.206 220.215 295.327 220.215 296.496C220.215 297.665 219.75 298.786 218.922 299.613C218.094 300.44 216.971 300.904 215.8 300.904Z" fill="#1550B4"></path><path d="M204.571 127.64H197.076V105.527C197.077 104.877 197.336 104.255 197.796 103.795C198.256 103.336 198.88 103.078 199.53 103.077H202.117C202.768 103.078 203.391 103.336 203.851 103.795C204.311 104.255 204.57 104.877 204.571 105.527V127.64Z" fill="#3F3D56"></path><path d="M209.52 165.827H137.88L137.623 125.511C137.621 124.889 137.743 124.272 137.984 123.697C138.224 123.122 138.578 122.602 139.024 122.167L157.021 104.664C157.874 103.831 159.018 103.361 160.212 103.352L190.333 103.077C191.016 103.073 191.691 103.218 192.312 103.503C192.932 103.789 193.482 104.206 193.923 104.727L193.926 104.73L208.232 122.248C209.064 123.269 209.519 124.545 209.52 125.861L209.52 165.827Z" fill="#3F3D56"></path><path d="M209.152 165.614H170.653V129.484C170.653 128.383 171.046 127.318 171.761 126.48L188.488 106.899V106.9C188.923 106.39 189.464 105.98 190.073 105.7C190.681 105.419 191.344 105.274 192.015 105.275H192.032C192.706 105.277 193.371 105.426 193.981 105.711C194.591 105.996 195.131 106.411 195.564 106.926L208.066 121.786C208.767 122.62 209.151 123.674 209.152 124.763V165.614Z" fill="#1550B4"></path><path d="M193 152.22H187.43C187.068 152.22 186.722 152.077 186.466 151.821C186.211 151.566 186.067 151.22 186.067 150.859V146.196C186.067 145.835 186.211 145.49 186.466 145.234C186.722 144.979 187.068 144.836 187.43 144.835H193C193.361 144.836 193.708 144.979 193.963 145.234C194.219 145.49 194.363 145.835 194.363 146.196V150.859C194.363 151.22 194.219 151.566 193.963 151.821C193.708 152.077 193.361 152.22 193 152.22Z" fill="white"></path><path d="M193 140.024H187.43C187.068 140.024 186.722 139.88 186.466 139.625C186.211 139.37 186.067 139.024 186.067 138.663V134.108C186.067 133.748 186.211 133.402 186.466 133.146C186.722 132.891 187.068 132.748 187.43 132.747H193C193.361 132.748 193.708 132.891 193.963 133.146C194.219 133.402 194.363 133.748 194.363 134.108V138.663C194.363 139.024 194.219 139.37 193.963 139.625C193.708 139.88 193.361 140.024 193 140.024Z" fill="white"></path><path d="M158.869 150.022H153.299C152.938 150.022 152.591 149.878 152.336 149.623C152.08 149.368 151.936 149.022 151.936 148.661V143.999C151.936 143.638 152.08 143.292 152.336 143.037C152.591 142.781 152.938 142.638 153.299 142.637H158.869C159.23 142.638 159.577 142.781 159.833 143.037C160.088 143.292 160.232 143.638 160.232 143.999V148.661C160.232 149.022 160.088 149.368 159.833 149.623C159.577 149.878 159.23 150.022 158.869 150.022Z" fill="white"></path><path d="M158.869 137.826H153.299C152.938 137.826 152.591 137.682 152.336 137.427C152.08 137.172 151.936 136.826 151.936 136.465V131.911C151.936 131.55 152.08 131.204 152.336 130.949C152.591 130.693 152.938 130.55 153.299 130.549H158.869C159.23 130.55 159.577 130.693 159.833 130.949C160.088 131.204 160.232 131.55 160.232 131.911V136.465C160.232 136.826 160.088 137.172 159.833 137.427C159.577 137.682 159.23 137.826 158.869 137.826Z" fill="white"></path><path d="M223.503 165.704H126.058C125.913 165.704 125.774 165.647 125.672 165.545C125.57 165.443 125.512 165.304 125.512 165.16C125.512 165.016 125.57 164.877 125.672 164.775C125.774 164.673 125.913 164.615 126.058 164.615H223.503C223.647 164.615 223.786 164.673 223.888 164.775C223.991 164.877 224.048 165.016 224.048 165.16C224.048 165.304 223.991 165.443 223.888 165.545C223.786 165.647 223.647 165.704 223.503 165.704Z" fill="#3F3D56"></path><path d="M446.047 379.99H0.54529C0.40067 379.99 0.261973 379.933 0.159711 379.831C0.0574496 379.728 0 379.59 0 379.446C0 379.301 0.0574496 379.163 0.159711 379.061C0.261973 378.958 0.40067 378.901 0.54529 378.901H446.047C446.192 378.901 446.33 378.958 446.432 379.061C446.535 379.163 446.592 379.301 446.592 379.446C446.592 379.59 446.535 379.728 446.432 379.831C446.33 379.933 446.192 379.99 446.047 379.99Z" fill="#3F3D56"></path></g><defs><clipPath><rect width="446.592" height="379.487" fill="white" transform="translate(0 0.87915)"></rect></clipPath></defs></svg>