<svg width="132" height="100" viewBox="0 0 132 100" fill="none" xmlns="http://www.w3.org/2000/svg" class="jss40"><g clip-path="url(#clip0)"><path d="M93.5963 38.7573H82.3766V45.8579H93.5963V38.7573Z" fill="#3F50AD"></path><path d="M75.881 50H64.6612V57.1006H75.881V50Z" fill="#3F50AD"></path><path d="M126.474 41.0865V25.7283H117.953V15.752H112.186V25.7283H103.665V41.0865H98.9459V6.56333H89.3766V3.28167H76.6612V0H64.0769V3.28167H52.148V6.56333H41.7922V40.9552H36.2866V25.597H27.766V15.6207H21.9982V25.597H13.4776V40.9552H7.97192V95.4309H20.5562V76.1347H29.2079V95.4309H63.0282V72.9843H77.7099V95.4309H98.1594V95.5621H110.744V76.2659H119.395V95.5621H131.98V41.0865H126.474ZM12.4944 47.6498H17.4757V51.5878H12.4944V47.6498ZM12.5599 58.6762H17.5412V62.6142H12.5599V58.6762ZM17.6068 73.6406H12.6255V69.7026H17.6068V73.6406ZM30.6499 38.0673H19.1143V35.7045H30.6499V38.0673ZM30.6499 34.6544H19.1143V32.2916H30.6499V34.6544ZM30.6499 31.2415H19.1143V28.8787H30.6499V31.2415ZM32.2885 47.6498H37.2697V51.5878H32.2885V47.6498ZM32.354 58.6762H37.3353V62.6142H32.354V58.6762ZM37.4008 73.6406H32.4195V69.7026H37.4008V73.6406ZM57.7848 67.0773H48.6087V63.008H57.7848V67.0773ZM57.7848 55.3945H48.6087V51.3253H57.7848V55.3945ZM57.7848 43.7118H48.6087V39.6425H57.7848V43.7118ZM57.7848 32.0291H48.6087V27.9598H57.7848V32.0291ZM57.7848 20.3463H48.6087V16.2771H57.7848V20.3463ZM74.9571 67.0773H65.781V63.008H74.9571V67.0773ZM74.9571 55.3945H65.781V51.3253H74.9571V55.3945ZM74.9571 43.7118H65.781V39.6425H74.9571V43.7118ZM74.9571 32.0291H65.781V27.9598H74.9571V32.0291ZM74.9571 20.3463H65.781V16.2771H74.9571V20.3463ZM92.1294 67.0773H82.9533V63.008H92.1294V67.0773ZM92.1294 55.3945H82.9533V51.3253H92.1294V55.3945ZM92.1294 43.7118H82.9533V39.6425H92.1294V43.7118ZM92.1294 32.0291H82.9533V27.9598H92.1294V32.0291ZM92.1294 20.3463H82.9533V16.2771H92.1294V20.3463ZM102.682 47.7811H107.663V51.7191H102.682V47.7811ZM102.747 58.8075H107.729V62.7455H102.747V58.8075ZM107.794 73.7719H102.813V69.8339H107.794V73.7719ZM120.837 38.1986H109.302V35.8358H120.837V38.1986ZM120.837 34.7857H109.302V32.4229H120.837V34.7857ZM120.837 31.3727H109.302V29.0099H120.837V31.3727ZM122.476 47.7811H127.457V51.7191H122.476V47.7811ZM122.541 58.8075H127.523V62.7455H122.541V58.8075ZM127.588 73.7719H122.607V69.8339H127.588V73.7719Z" fill="#DBDBDB"></path><path d="M15.8161 82.0268C15.7825 82.5433 15.7299 83.1209 15.6486 83.7278L17.1168 81.9578L17.1249 81.9874C17.0351 81.5615 16.8905 81.1514 16.6955 80.7693L16.7049 80.7973L15.8161 82.0268Z" fill="#1550B4"></path><path d="M15.6486 81.9526L16.5344 80.7849C16.3459 80.4287 16.0734 80.1278 15.7421 79.9104C15.7259 79.9003 15.7096 79.8909 15.6933 79.8816C15.6981 80.0195 15.7213 80.8291 15.6486 81.9526Z" fill="#1550B4"></path><path d="M14.8843 86.8934C14.8451 87.024 14.8046 87.1522 14.7628 87.278L17.0047 85.8412L17.0078 85.8773C17.0547 85.6538 17.0937 85.4304 17.1249 85.207L14.8864 86.9098L14.8843 86.8934Z" fill="#1550B4"></path><path d="M15.0581 85.7988L17.1185 83.9915L17.1243 84.0253C17.1316 83.4277 17.0723 82.8313 16.9476 82.2485L15.3646 84.1158C15.2815 84.7044 15.1793 85.2654 15.0581 85.7988Z" fill="#1550B4"></path><path d="M15.6486 83.9197L13.0179 81.0971L13.032 81.0652C12.7847 81.4 12.5732 81.758 12.4008 82.1337L15.4028 85.2072C15.5056 84.7586 15.5859 84.3243 15.6486 83.9197Z" fill="#1550B4"></path><path d="M12.4008 82.2808L12.4009 82.281C12.4054 82.2705 12.4094 82.259 12.414 82.2485L12.4008 82.2808Z" fill="#1550B4"></path><path d="M12.086 82.4177L12.073 82.4501C12.0771 82.439 12.0819 82.4289 12.0861 82.4178L12.086 82.4177Z" fill="#1550B4"></path><path d="M15.1277 85.2478L12.2146 82.1428C12.1653 82.2558 12.1181 82.3719 12.073 82.4913L15.0504 85.5763C15.0775 85.4662 15.1032 85.3567 15.1277 85.2478Z" fill="#1550B4"></path><path d="M17.1584 84.9706C17.2164 84.5801 17.248 84.1861 17.253 83.7913L15.0986 85.57C15.0132 85.915 14.9193 86.2466 14.8168 86.5649L17.1538 84.9367L17.1584 84.9706Z" fill="#1550B4"></path><path d="M11.8295 85.168L14.1875 88.2479C14.3813 87.873 14.5524 87.4868 14.6999 87.0914L11.8226 84.0659C11.7941 84.4442 11.791 84.8239 11.8132 85.2025L11.8295 85.168Z" fill="#1550B4"></path><path d="M15.8583 79.8724L15.8794 79.8629C15.363 79.5867 14.8039 79.6164 14.2681 79.8964L15.8124 81.9964C15.8956 80.75 15.8588 79.8848 15.8583 79.8724Z" fill="#1550B4"></path><path d="M14.7312 87.2286C14.5958 87.5844 14.4412 87.9325 14.2681 88.2714L16.64 87.0428L16.6424 87.077C16.8211 86.7748 16.9608 86.4511 17.0583 86.1137C17.096 85.9809 17.1303 85.8478 17.1614 85.7144L14.7731 87.1163C14.7592 87.1538 14.7454 87.1915 14.7312 87.2286Z" fill="#1550B4"></path><path d="M15.5989 82.1239L14.0191 79.9757L14.0339 79.9451C13.5817 80.207 13.1932 80.5659 12.8961 80.9961L15.4189 83.8141C15.5062 83.2108 15.5627 82.637 15.5989 82.1239Z" fill="#1550B4"></path><path d="M14.6946 87.2512C14.8705 86.7709 15.0204 86.2815 15.1437 85.785L12.1589 82.6924C12.0879 82.8856 12.0226 83.0865 11.9631 83.2952C11.8806 83.5944 11.8255 83.9005 11.7986 84.2098L14.6923 87.2525L14.6946 87.2512Z" fill="#1550B4"></path><path d="M17.6933 90.4706C17.3344 90.847 16.9202 91.2576 16.4631 91.6709L18.8311 91.3238L18.8189 91.3524C19.0163 90.96 19.1574 90.5417 19.2381 90.1099L19.228 90.1381L17.6933 90.4706Z" fill="#1550B4"></path><path d="M19.2456 88.7922C19.2389 88.7733 19.2317 88.7548 19.2245 88.7363C19.1384 88.8485 18.6284 89.5036 17.8351 90.3416L19.3217 90.0196C19.4004 89.6106 19.3742 89.1883 19.2456 88.7922Z" fill="#1550B4"></path><path d="M14.0541 93.4065C13.9421 93.4771 13.8305 93.545 13.7193 93.6104L16.4197 94.0504L16.4001 94.0793C16.5753 93.9449 16.7442 93.8052 16.9067 93.6603L14.0456 93.4201L14.0541 93.4065Z" fill="#1550B4"></path><path d="M15.0912 92.8938L17.8465 92.8995L17.8303 92.9286C18.2057 92.4865 18.5276 92.0013 18.7891 91.4834L16.376 91.8371C15.9459 92.2225 15.5176 92.5747 15.0912 92.8938Z" fill="#1550B4"></path><path d="M14.2681 93.4435L17.1053 93.6817L17.0872 93.7108C17.3807 93.447 17.6561 93.1637 17.9115 92.8628L15.1189 92.8572C14.8334 93.0683 14.5498 93.2638 14.2681 93.4435Z" fill="#1550B4"></path><path d="M10.6477 94.7839C10.6678 94.7635 10.6891 94.7414 10.71 94.7198C11.2886 94.6276 11.8539 94.4659 12.3938 94.2382L12.4709 92.1911C12.4938 92.139 12.516 92.0866 12.5376 92.0337L12.4555 94.2123C12.8436 94.0473 13.2214 93.8591 13.587 93.6488L13.3235 89.8433C13.3438 89.8327 13.3643 89.822 13.3853 89.8108L13.6485 93.6114L13.6511 93.6119C14.0925 93.3543 14.5198 93.073 14.9311 92.7694L14.6441 89.0245C14.6645 89.0096 14.6847 88.995 14.7051 88.9798L14.992 92.7245C15.083 92.657 15.1726 92.5891 15.2607 92.5209L15.0241 88.7299C15.0443 88.7133 15.0646 88.6966 15.0848 88.6797L15.3217 92.4735C15.6859 92.1893 16.0243 91.9021 16.3304 91.6271L16.1815 87.8148L16.2124 87.7988C16.1067 87.8264 15.9992 87.8592 15.8909 87.8948C16.0947 87.6618 16.278 87.4116 16.4388 87.147L14.0442 88.3873C13.8784 88.7026 13.692 89.0066 13.4861 89.2971C13.4433 89.3376 13.4005 89.378 13.3583 89.4202L13.3614 89.4657C13.3419 89.4915 13.3225 89.5175 13.3027 89.5428L13.2984 89.4814C13.2682 89.5124 13.2387 89.5453 13.2089 89.5772C13.5121 89.1981 13.7782 88.7908 14.0036 88.3607L11.6628 85.3033C11.6788 85.5766 11.7054 85.8517 11.7398 86.1246C11.5224 85.7708 11.2585 85.448 10.9551 85.1648L10.9735 85.1884L10.4325 86.6641C10.5579 87.1692 10.6826 87.7392 10.7866 88.3469L11.748 86.1888C11.7524 86.2225 11.7571 86.256 11.7617 86.2896L10.8026 88.4424C10.8975 89.0125 10.9655 89.5632 11.0064 90.0945L12.1575 88.2844C12.1641 88.3104 12.1707 88.3364 12.1772 88.3621L11.0138 90.1917C11.0391 90.5461 11.0521 90.8906 11.0529 91.225L12.46 89.3665C12.4675 89.391 12.4749 89.4147 12.4822 89.4381L11.0602 91.3163L11.0533 91.3019C11.0529 91.4344 11.0505 91.5652 11.0461 91.6942L12.6333 89.9052C12.6417 89.9301 12.6495 89.9531 12.6568 89.9741L11.0421 91.794C11.0405 91.834 11.039 91.8742 11.037 91.9138C11.0181 92.294 10.9785 92.673 10.9185 93.0489L11.0716 92.8936C11.0426 92.9539 11.0144 93.0133 10.9869 93.0718L10.8997 93.1602C10.8897 93.2176 10.8783 93.2737 10.8673 93.3303C10.8352 93.401 10.8042 93.47 10.7744 93.5372C10.8032 93.4082 10.83 93.2784 10.8529 93.1474L7.6828 90.9641C8.50987 93.0824 10.0673 95.0975 10.167 95.2254C10.248 95.074 10.3215 94.9183 10.389 94.7593C10.4086 94.7574 10.4283 94.7556 10.4479 94.7535C10.4398 94.7731 10.4313 94.7923 10.4231 94.8116C10.4132 94.8127 10.4032 94.8143 10.3933 94.8153C10.401 94.8174 10.4102 94.8199 10.4186 94.8222C10.371 94.9333 10.3217 95.0425 10.2689 95.1479C10.338 95.0856 10.4434 94.9872 10.5694 94.8623C11.3149 95.0528 13.3231 95.4602 15.0426 94.8584L12.4081 94.2846C11.8443 94.5236 11.2529 94.6914 10.6477 94.7839ZM12.499 91.4465L12.5621 91.3825L12.5585 91.4784L12.4954 91.5425L12.499 91.4465Z" fill="#1550B4"></path><path d="M19.2236 88.6343L19.2459 88.6406C19.0241 88.0981 18.5747 87.7639 17.9835 87.6375L17.8351 90.241C18.6932 89.3341 19.2161 88.6443 19.2236 88.6343Z" fill="#1550B4"></path><path d="M13.6428 93.7412C13.3119 93.9287 12.9711 94.0981 12.6218 94.2486L15.2313 94.8169L15.2114 94.8447C15.5416 94.7261 15.8555 94.566 16.1455 94.3684C16.259 94.2902 16.3703 94.2096 16.4793 94.1267L13.7467 93.6814C13.7121 93.7014 13.6774 93.7217 13.6428 93.7412Z" fill="#1550B4"></path><path d="M16.6108 91.5511C17.0624 91.1422 17.4715 90.7363 17.8263 90.3642L17.9782 87.7009L18.0091 87.6868C17.494 87.5998 16.966 87.6281 16.4631 87.7698L16.6108 91.5511Z" fill="#1550B4"></path><path d="M11.0126 85.2202C10.7097 84.9347 10.3394 84.7308 9.93634 84.6275C9.9168 84.623 9.89736 84.6192 9.87793 84.6155C9.92647 84.7484 10.2062 85.5302 10.4885 86.6497L11.0126 85.2202Z" fill="#1550B4"></path><path d="M10.9498 88.4882L7.65369 86.5733L7.65672 86.5386C7.53339 86.9331 7.45019 87.339 7.40839 87.7503L11.1239 89.7943C11.0791 89.3341 11.018 88.8943 10.9498 88.4882Z" fill="#1550B4"></path><path d="M7.40839 87.6723L7.40852 87.6723C7.40962 87.6609 7.40986 87.6488 7.41103 87.6375L7.40839 87.6723Z" fill="#1550B4"></path><path d="M7.41079 88.1868L7.40839 88.2216C7.4089 88.2098 7.41033 88.1986 7.41089 88.1868L7.41079 88.1868Z" fill="#1550B4"></path><path d="M11.1645 89.9637L7.43541 87.9121C7.42344 88.0347 7.41444 88.1598 7.40839 88.2873L11.1924 90.2999C11.1842 90.1868 11.1749 90.0747 11.1645 89.9637Z" fill="#1550B4"></path><path d="M11.0789 91.8222L7.40839 89.8352C7.49805 90.2037 7.61228 90.5658 7.7503 90.9191L7.75513 90.8812L10.9486 93.0806C11.0171 92.6641 11.0606 92.2439 11.0789 91.8222Z" fill="#1550B4"></path><path d="M10.0109 84.6575L10.0281 84.642C9.45166 84.5391 8.92913 84.7403 8.50598 85.1724L10.6231 86.6917C10.3173 85.4806 10.0153 84.6691 10.0109 84.6575Z" fill="#1550B4"></path><path d="M10.6014 86.7526L8.43569 85.1985L8.44034 85.1648C8.09118 85.5538 7.83246 86.0154 7.6828 86.5164L10.9521 88.4158C10.8488 87.815 10.7254 87.2518 10.6014 86.7526Z" fill="#1550B4"></path><path d="M11.2334 91.7377C11.2524 91.2265 11.2438 90.7146 11.2078 90.2044L7.41436 88.1868C7.40642 88.3925 7.40639 88.6037 7.41427 88.8206C7.42819 89.1307 7.47033 89.4389 7.54017 89.7414L11.2317 91.7396L11.2334 91.7377Z" fill="#1550B4"></path><path d="M128.047 81.7586C128.01 82.2777 127.953 82.8584 127.864 83.4685L129.466 81.6892L129.475 81.719C129.377 81.2908 129.219 80.8785 129.007 80.4944L129.017 80.5225L128.047 81.7586Z" fill="#1550B4"></path><path d="M127.864 81.5191L128.804 80.3218C128.604 79.9565 128.315 79.648 127.963 79.425C127.946 79.4147 127.929 79.4051 127.911 79.3955C127.916 79.5369 127.941 80.3671 127.864 81.5191Z" fill="#1550B4"></path><path d="M127.169 86.2415C127.127 86.3674 127.085 86.491 127.041 86.6123L129.401 85.2269L129.404 85.2617C129.454 85.0463 129.495 84.8309 129.527 84.6155L127.171 86.2573L127.169 86.2415Z" fill="#1550B4"></path><path d="M127.315 85.0411L129.441 83.286L129.447 83.3189C129.454 82.7386 129.393 82.1594 129.265 81.5935L127.631 83.4068C127.546 83.9783 127.44 84.523 127.315 85.0411Z" fill="#1550B4"></path><path d="M127.711 83.3676L125.168 80.5265L125.182 80.4944C124.942 80.8314 124.738 81.1917 124.571 81.5699L127.474 84.6636C127.573 84.2121 127.651 83.7749 127.711 83.3676Z" fill="#1550B4"></path><path d="M124.571 81.6258L124.571 81.6259C124.576 81.6154 124.58 81.604 124.585 81.5935L124.571 81.6258Z" fill="#1550B4"></path><path d="M127.352 84.9732L124.438 81.8682C124.389 81.9811 124.342 82.0972 124.297 82.2166L127.274 85.3016C127.301 85.1915 127.327 85.082 127.352 84.9732Z" fill="#1550B4"></path><path d="M124.31 82.1428L124.297 82.1752C124.301 82.1641 124.306 82.154 124.31 82.1429L124.31 82.1428Z" fill="#1550B4"></path><path d="M129.382 84.6957C129.44 84.3052 129.472 83.9112 129.477 83.5164L127.323 85.2951C127.237 85.6401 127.143 85.9717 127.041 86.29L129.378 84.6618L129.382 84.6957Z" fill="#1550B4"></path><path d="M124.053 84.8933L126.411 87.9732C126.605 87.5983 126.776 87.2121 126.924 86.8167L124.047 83.7913C124.018 84.1695 124.015 84.5492 124.037 84.9279L124.053 84.8933Z" fill="#1550B4"></path><path d="M128.082 79.5975L128.103 79.588C127.587 79.3118 127.028 79.3415 126.492 79.6215L128.036 81.7215C128.119 80.4751 128.083 79.6099 128.082 79.5975Z" fill="#1550B4"></path><path d="M126.955 86.9537C126.82 87.3095 126.665 87.6576 126.492 87.9965L128.864 86.7679L128.866 86.8021C129.045 86.4999 129.185 86.1762 129.282 85.8388C129.32 85.706 129.354 85.5729 129.385 85.4395L126.997 86.8414C126.983 86.8789 126.969 86.9166 126.955 86.9537Z" fill="#1550B4"></path><path d="M127.823 81.8492L126.243 79.701L126.258 79.6704C125.806 79.9323 125.417 80.2913 125.12 80.7215L127.643 83.5395C127.73 82.9362 127.787 82.3623 127.823 81.8492Z" fill="#1550B4"></path><path d="M126.918 86.7017C127.094 86.2214 127.244 85.7319 127.368 85.2355L124.383 82.1428C124.312 82.336 124.246 82.5369 124.187 82.7456C124.104 83.0448 124.049 83.351 124.022 83.6602L126.916 86.703L126.918 86.7017Z" fill="#1550B4"></path><path d="M129.917 90.1959C129.558 90.5724 129.144 90.9829 128.687 91.3962L131.055 91.0491L131.043 91.0777C131.24 90.6853 131.381 90.267 131.462 89.8352L131.452 89.8634L129.917 90.1959Z" fill="#1550B4"></path><path d="M131.469 88.5175C131.463 88.4986 131.456 88.4801 131.448 88.4617C131.362 88.5739 130.852 89.2289 130.059 90.0669L131.546 89.7449C131.624 89.3359 131.598 88.9136 131.469 88.5175Z" fill="#1550B4"></path><path d="M126.278 93.1318C126.166 93.2024 126.054 93.2704 125.943 93.3357L128.644 93.7758L128.624 93.8046C128.799 93.6702 128.968 93.5305 129.131 93.3856L126.27 93.1454L126.278 93.1318Z" fill="#1550B4"></path><path d="M127.315 92.3446L130.07 92.3502L130.054 92.3793C130.43 91.9372 130.751 91.452 131.013 90.9341L128.6 91.2878C128.17 91.6732 127.741 92.0255 127.315 92.3446Z" fill="#1550B4"></path><path d="M126.492 93.1688L129.329 93.407L129.311 93.4361C129.605 93.1724 129.88 92.8891 130.135 92.5882L127.343 92.5825C127.057 92.7937 126.774 92.9891 126.492 93.1688Z" fill="#1550B4"></path><path d="M122.872 94.5092C122.892 94.4889 122.913 94.4668 122.934 94.4452C123.512 94.3529 124.078 94.1912 124.618 93.9636L124.695 91.9165C124.718 91.8644 124.74 91.8119 124.761 91.7591L124.679 93.9377C125.067 93.7727 125.445 93.5845 125.811 93.3742L125.547 89.5686C125.568 89.558 125.588 89.5473 125.609 89.5362L125.872 93.3368L125.875 93.3372C126.316 93.0796 126.744 92.7984 127.155 92.4948L126.868 88.7498C126.888 88.7349 126.909 88.7204 126.929 88.7052L127.216 92.4498C127.307 92.3823 127.396 92.3145 127.485 92.2462L127.248 88.4553C127.268 88.4386 127.288 88.4219 127.309 88.405L127.546 92.1989C127.91 91.9146 128.248 91.6275 128.554 91.3525L128.405 87.5402L128.436 87.5241C128.331 87.5517 128.223 87.5845 128.115 87.6202C128.319 87.3871 128.502 87.1369 128.663 86.8723L126.268 88.1127C126.102 88.428 125.916 88.7319 125.71 89.0225C125.667 89.0629 125.624 89.1033 125.582 89.1456L125.585 89.1911C125.566 89.2168 125.546 89.2428 125.527 89.2681L125.522 89.2067C125.492 89.2378 125.463 89.2706 125.433 89.3025C125.736 88.9235 126.002 88.5161 126.227 88.0861L123.887 85.0287C123.903 85.302 123.929 85.5771 123.964 85.8499C123.746 85.4962 123.482 85.1733 123.179 84.8901L123.197 84.9137L122.656 86.3894C122.782 86.8945 122.907 87.4645 123.011 88.0723L123.972 85.9142C123.976 85.9478 123.981 85.9813 123.986 86.0149L123.027 88.1677C123.121 88.7378 123.189 89.2885 123.23 89.8198L124.381 88.0098C124.388 88.0358 124.395 88.0618 124.401 88.0874L123.238 89.917C123.263 90.2715 123.276 90.6159 123.277 90.9504L124.684 89.0918C124.691 89.1163 124.699 89.14 124.706 89.1635L123.284 91.0417L123.277 91.0273C123.277 91.1598 123.274 91.2905 123.27 91.4195L124.857 89.6305C124.866 89.6555 124.873 89.6784 124.881 89.6994L123.266 91.5193C123.264 91.5593 123.263 91.5995 123.261 91.6392C123.242 92.0194 123.202 92.3983 123.142 92.7742L123.296 92.6189C123.267 92.6792 123.238 92.7386 123.211 92.7972L123.124 92.8855C123.114 92.943 123.102 92.9991 123.091 93.0556C123.059 93.1263 123.028 93.1953 122.998 93.2626C123.027 93.1335 123.054 93.0037 123.077 92.8728L119.907 90.6894C120.734 92.8078 122.291 94.8228 122.391 94.9507C122.472 94.7994 122.545 94.6436 122.613 94.4846C122.633 94.4828 122.652 94.4809 122.672 94.4789C122.664 94.4984 122.655 94.5176 122.647 94.537C122.637 94.538 122.627 94.5396 122.617 94.5406C122.625 94.5428 122.634 94.5453 122.642 94.5476C122.595 94.6586 122.546 94.7678 122.493 94.8733C122.562 94.811 122.667 94.7126 122.793 94.5877C123.539 94.7782 125.547 95.1856 127.267 94.5837L124.632 94.01C124.068 94.249 123.477 94.4167 122.872 94.5092ZM124.723 91.1719L124.786 91.1078L124.782 91.2038L124.719 91.2678L124.723 91.1719Z" fill="#1550B4"></path><path d="M131.447 88.3594L131.47 88.3657C131.248 87.8232 130.799 87.489 130.207 87.3625L130.059 89.9661C130.917 89.0592 131.44 88.3694 131.447 88.3594Z" fill="#1550B4"></path><path d="M125.867 93.4663C125.536 93.6539 125.195 93.8233 124.846 93.9737L127.455 94.542L127.435 94.5699C127.765 94.4512 128.079 94.2911 128.369 94.0935C128.483 94.0153 128.594 93.9347 128.703 93.8518L125.971 93.4065C125.936 93.4265 125.901 93.4468 125.867 93.4663Z" fill="#1550B4"></path><path d="M128.835 91.2761C129.286 90.8672 129.695 90.4614 130.05 90.0893L130.202 87.426L130.233 87.4119C129.718 87.3249 129.19 87.3532 128.687 87.4949L128.835 91.2761Z" fill="#1550B4"></path><path d="M123.236 84.6707C122.934 84.3852 122.563 84.1812 122.16 84.0779C122.141 84.0735 122.121 84.0697 122.102 84.0659C122.15 84.1988 122.43 84.9807 122.712 86.1001L123.236 84.6707Z" fill="#1550B4"></path><path d="M123.174 88.2133L119.878 86.2984L119.881 86.2637C119.757 86.6582 119.674 87.0641 119.632 87.4754L123.348 89.5194C123.303 89.0592 123.242 88.6194 123.174 88.2133Z" fill="#1550B4"></path><path d="M119.635 87.9121L119.632 87.947C119.633 87.9351 119.634 87.924 119.635 87.9122L119.635 87.9121Z" fill="#1550B4"></path><path d="M119.632 87.3974L119.632 87.3975C119.633 87.3861 119.634 87.3739 119.635 87.3625L119.632 87.3974Z" fill="#1550B4"></path><path d="M123.388 89.4141L119.659 87.3625C119.647 87.4852 119.638 87.6103 119.632 87.7377L123.416 89.7503C123.408 89.6372 123.399 89.5251 123.388 89.4141Z" fill="#1550B4"></path><path d="M123.303 91.5475L119.632 89.5605C119.722 89.9291 119.836 90.2912 119.974 90.6444L119.979 90.6065L123.173 92.8059C123.241 92.3894 123.285 91.9692 123.303 91.5475Z" fill="#1550B4"></path><path d="M121.96 84.1079L121.978 84.0924C121.401 83.9895 120.879 84.1907 120.456 84.6228L122.573 86.1421C122.267 84.931 121.965 84.1195 121.96 84.1079Z" fill="#1550B4"></path><path d="M122.825 86.2033L120.66 84.6492L120.664 84.6155C120.315 85.0045 120.056 85.4661 119.907 85.9671L123.176 87.8665C123.073 87.2657 122.949 86.7025 122.825 86.2033Z" fill="#1550B4"></path><path d="M123.457 91.463C123.476 90.9518 123.468 90.44 123.432 89.9297L119.638 87.9121C119.63 88.1178 119.63 88.3291 119.638 88.546C119.652 88.8561 119.694 89.1643 119.764 89.4667L123.456 91.465L123.457 91.463Z" fill="#1550B4"></path><path d="M7.95721 95.3296H131.965V97.1059C131.965 97.853 131.669 98.5695 131.141 99.0977C130.614 99.626 129.898 99.9228 129.152 99.9228H10.7709C10.0247 99.9228 9.30901 99.626 8.78133 99.0977C8.25366 98.5695 7.95721 97.853 7.95721 97.1059V95.3296Z" fill="#3F3D56"></path><path d="M131.965 93.9561H7.95721V96.4495H131.965V93.9561Z" fill="#3F3D56"></path><path d="M104.093 8.62987L105.517 9.53404L104.653 7.96008C104.897 7.76444 105.201 7.65614 105.514 7.65233C105.521 7.65233 105.529 7.6524 105.537 7.65253C105.636 7.65413 105.735 7.6468 105.832 7.63066L106.315 7.93707L106.108 7.56045C106.45 7.44106 106.745 7.21653 106.952 6.91892L107.816 7.46737L107.271 6.474C107.776 5.86689 108.457 5.49463 109.206 5.49463C110.104 5.49463 110.905 6.0295 111.421 6.86286C111.574 7.1122 111.79 7.31666 112.047 7.45547C112.304 7.59429 112.593 7.66251 112.885 7.65323C112.901 7.65263 112.918 7.65234 112.934 7.65233C113.925 7.65233 114.729 8.77804 114.729 10.1667C114.729 11.5553 113.925 12.681 112.934 12.681C112.716 12.6802 112.501 12.6264 112.308 12.5243C111.971 12.36 111.601 12.2711 111.226 12.2638C110.851 12.2564 110.478 12.3308 110.135 12.4817C109.844 12.6124 109.53 12.6803 109.211 12.681C108.893 12.6818 108.578 12.6153 108.287 12.486C107.946 12.338 107.577 12.2651 107.205 12.2723C106.834 12.2795 106.468 12.3666 106.133 12.5277C105.942 12.6277 105.729 12.6803 105.514 12.681C104.522 12.681 103.718 11.5553 103.718 10.1667C103.712 9.63103 103.841 9.10254 104.093 8.62987Z" fill="#DBDBDB"></path><path d="M31.5187 16.0054L32.4247 16.5806L31.8746 15.5793C32.0304 15.4549 32.2232 15.386 32.4224 15.3835C32.4273 15.3835 32.4322 15.3836 32.437 15.3837C32.5 15.3847 32.5629 15.38 32.625 15.3698L32.932 15.5647L32.8004 15.3251C33.0179 15.2492 33.2059 15.1063 33.3375 14.917L33.8871 15.2659L33.5399 14.634C33.6861 14.4452 33.8724 14.2914 34.0854 14.1836C34.2983 14.0759 34.5326 14.0169 34.7711 14.011C35.3426 14.011 35.8516 14.3512 36.1802 14.8813C36.2774 15.04 36.4147 15.17 36.5783 15.2583C36.7419 15.3466 36.9259 15.39 37.1116 15.3841C37.1219 15.3837 37.1321 15.3836 37.1424 15.3835C37.7732 15.3835 38.2847 16.0996 38.2847 16.983C38.2847 17.8663 37.7732 18.5824 37.1424 18.5824C37.0036 18.5819 36.8671 18.5477 36.7445 18.4827C36.5298 18.3782 36.2949 18.3217 36.0562 18.317C35.8175 18.3123 35.5806 18.3596 35.3619 18.4556C35.1772 18.5387 34.977 18.5819 34.7745 18.5824C34.5719 18.5829 34.3716 18.5406 34.1865 18.4584C33.9695 18.3642 33.7348 18.3178 33.4984 18.3224C33.262 18.327 33.0293 18.3824 32.8161 18.4849C32.6946 18.5485 32.5596 18.5819 32.4224 18.5824C31.7916 18.5824 31.2801 17.8663 31.2801 16.983C31.2765 16.6422 31.3585 16.3061 31.5187 16.0054Z" fill="#DBDBDB"></path><path d="M7.37268 19.0274L8.27866 19.6025L7.72859 18.6013C7.88437 18.4768 8.07716 18.408 8.27645 18.4055C8.28131 18.4055 8.28617 18.4056 8.29103 18.4057C8.35398 18.4067 8.41689 18.402 8.479 18.3917L8.78603 18.5867L8.65441 18.3471C8.87195 18.2711 9.05995 18.1283 9.19154 17.939L9.74108 18.2879L9.3939 17.656C9.54011 17.4672 9.72644 17.3133 9.93939 17.2056C10.1523 17.0978 10.3866 17.0389 10.6251 17.033C11.1966 17.033 11.7056 17.3732 12.0342 17.9033C12.1314 18.0619 12.2687 18.192 12.4323 18.2803C12.5959 18.3686 12.7799 18.412 12.9657 18.4061C12.9759 18.4057 12.9861 18.4055 12.9964 18.4055C13.6273 18.4055 14.1387 19.1216 14.1387 20.005C14.1387 20.8883 13.6273 21.6044 12.9964 21.6044C12.8577 21.6039 12.7211 21.5697 12.5985 21.5047C12.3838 21.4002 12.1489 21.3436 11.9102 21.339C11.6715 21.3343 11.4346 21.3816 11.2159 21.4776C11.0312 21.5607 10.831 21.6039 10.6285 21.6044C10.426 21.6049 10.2256 21.5626 10.0405 21.4803C9.82351 21.3862 9.58885 21.3398 9.35241 21.3444C9.11598 21.3489 8.88329 21.4044 8.67012 21.5069C8.54859 21.5704 8.41358 21.6039 8.27644 21.6044C7.64557 21.6044 7.13415 20.8883 7.13415 20.005C7.13048 19.6642 7.21251 19.328 7.37268 19.0274Z" fill="#DBDBDB"></path><path d="M39.9442 78.2966L39.7859 78.4551C39.7859 78.4551 39.8387 80.1976 39.8914 80.5672C39.9442 80.9369 40.1552 81.5705 39.9969 82.0458C39.8387 82.521 39.786 82.8906 39.8387 82.9434C39.8914 82.9962 39.7859 83.2075 39.7859 83.2075L40.2079 82.9434L40.8936 81.3593L40.5771 79.6696L39.9442 78.2966Z" fill="#FFDA41"></path><path opacity="0.1" d="M39.9442 78.2966L39.7859 78.4551C39.7859 78.4551 39.8387 80.1976 39.8914 80.5672C39.9442 80.9369 40.1552 81.5705 39.9969 82.0458C39.8387 82.521 39.786 82.8906 39.8387 82.9434C39.8914 82.9962 39.7859 83.2075 39.7859 83.2075L40.2079 82.9434L40.8936 81.3593L40.5771 79.6696L39.9442 78.2966Z" fill="#3F3D56"></path><path d="M42.6039 94.8431C42.6039 94.8431 42.6039 94.2623 42.4984 94.1566C42.3929 94.051 42.2346 93.6814 42.0237 93.6814C41.8127 93.6814 41.0742 93.8926 41.0742 93.9454C41.0803 94.1103 41.0439 94.2739 40.9687 94.4207C40.8633 94.5791 40.2831 95.2128 40.8633 95.3184C41.0561 95.3501 41.2534 95.3431 41.4436 95.2978C41.6337 95.2525 41.813 95.1697 41.9709 95.0543C42.0237 95.0015 42.2346 94.9487 42.2874 95.0015C42.3401 95.0543 42.6039 94.8431 42.6039 94.8431Z" fill="#FFDA41"></path><path d="M44.1761 93.7342L44.4926 94.3151C44.4926 94.3151 44.5981 94.8431 44.7563 94.8959H44.9146C44.9146 94.8959 45.0728 95.4768 45.442 95.424C45.8113 95.3712 46.2332 95.1599 46.2332 95.0543C46.2332 94.9487 46.2332 94.6319 46.075 94.5263C45.8531 94.3449 45.6418 94.151 45.442 93.9454L45.1783 93.6814L44.1761 93.7342Z" fill="#FFDA41"></path><path d="M40.2984 74.4857C40.1969 74.5376 40.1093 74.6131 40.043 74.7059C39.9767 74.7987 39.9336 74.9061 39.9174 75.019C39.888 75.396 40.2603 75.7513 40.1405 76.1099C40.0725 76.3136 39.8607 76.4454 39.7998 76.6513C39.7677 76.8155 39.7918 76.9857 39.8681 77.1345C39.9514 77.3385 40.0528 77.5347 40.1711 77.7207C40.3934 78.0702 40.6828 78.4017 40.7422 78.8118C40.7587 78.8835 40.7579 78.9581 40.74 79.0295C40.7221 79.1008 40.6876 79.1669 40.6393 79.2224C40.7463 79.1413 40.8688 79.083 40.9992 79.051C41.5382 78.8707 42.0391 78.5914 42.4761 78.2275C42.6348 78.1158 42.7543 77.9567 42.8176 77.773C42.8981 77.4486 42.6521 77.124 42.6757 76.7906C42.6908 76.5773 42.8138 76.3889 42.8834 76.1867C42.9439 75.9855 42.9632 75.7741 42.9401 75.5652C42.917 75.3563 42.8519 75.1542 42.7488 74.9712C42.6635 74.794 42.543 74.6361 42.3948 74.5071C42.2466 74.378 42.0737 74.2805 41.8866 74.2204C41.5989 74.1533 41.2987 74.162 41.0153 74.2456C40.7677 74.297 40.527 74.3776 40.2984 74.4857Z" fill="#3F3D56"></path><path d="M40.3347 77.4218C40.4509 77.2057 40.6229 77.0249 40.8327 76.8981C41.0425 76.7714 41.2825 76.7034 41.5276 76.7012C42.3715 76.7012 42.2133 76.6484 42.2133 76.6484L41.9496 77.7045L41.4221 78.2326L40.3347 77.4218Z" fill="#1550B4"></path><path d="M40.6428 76.2253C40.6428 76.2253 41.1175 77.0173 40.801 77.3342C40.4845 77.651 40.6428 77.9678 40.6955 78.0206C40.7483 78.0734 42.2251 78.179 42.2251 78.179L42.2779 77.4398L42.4361 76.8061C42.4361 76.8061 41.5922 76.6477 41.6977 76.2781C41.8032 75.9084 40.6428 76.2253 40.6428 76.2253Z" fill="#FFB8B8"></path><path opacity="0.1" d="M40.6428 76.2253C40.6428 76.2253 41.1175 77.0173 40.801 77.3342C40.4845 77.651 40.6428 77.9678 40.6955 78.0206C40.7483 78.0734 42.2251 78.179 42.2251 78.179L42.2779 77.4398L42.4361 76.8061C42.4361 76.8061 41.5922 76.6477 41.6977 76.2781C41.8032 75.9084 40.6428 76.2253 40.6428 76.2253Z" fill="#3F3D56"></path><path d="M44.3237 83.7276C44.2672 83.9088 44.1967 84.0854 44.1127 84.2556C44.06 84.3084 43.9017 83.886 43.9017 83.886L44.06 83.5164L44.3237 83.7276Z" fill="#FFB8B8"></path><path d="M43.8373 81.3186L44.0482 82.5332H40.8835L41.0418 81.3186H43.8373Z" fill="#FFB8B8"></path><path d="M41.3369 76.7319C41.8904 76.7319 42.3391 76.2827 42.3391 75.7286C42.3391 75.1745 41.8904 74.7253 41.3369 74.7253C40.7834 74.7253 40.3347 75.1745 40.3347 75.7286C40.3347 76.2827 40.7834 76.7319 41.3369 76.7319Z" fill="#FFB8B8"></path><path d="M41.4846 77.6408C41.4846 77.6408 40.9044 77.6936 40.9044 77.588C40.9044 77.4824 40.8517 77.1656 40.7462 77.2184C40.6407 77.2712 39.955 77.324 40.0078 77.4824C40.0605 77.6408 40.166 77.9577 40.0605 77.9577C40.0149 77.967 39.9717 77.9855 39.9335 78.0121C39.8952 78.0386 39.8628 78.0727 39.8381 78.1122C39.8135 78.1517 39.7971 78.1959 39.79 78.2419C39.7829 78.288 39.7852 78.335 39.7968 78.3801C39.8495 78.6441 40.4297 80.2282 40.4297 80.2282C40.4297 80.2282 40.4825 80.7563 40.6407 80.9147C40.7051 80.9978 40.74 81.1 40.74 81.2051C40.74 81.3103 40.7051 81.4124 40.6407 81.4955C40.5352 81.6012 40.9045 81.7068 41.0627 81.918C41.2209 82.1292 42.4341 81.9708 42.4868 81.918C42.5396 81.8652 43.8054 81.8652 43.9109 81.7596C44.0164 81.654 43.8582 81.3371 43.8582 81.3371C43.8582 81.3371 43.8054 80.8619 43.8582 80.7035C43.9109 80.5451 43.6472 77.9577 43.489 77.7992C43.3307 77.6408 43.9637 77.1656 43.9637 77.1656C43.9637 77.1656 43.8582 76.7432 43.1725 76.6904C43.1725 76.6904 42.9615 76.3735 42.7505 76.3735C42.5395 76.3735 42.0815 76.6192 42.0815 76.6192C42.0815 76.6192 41.9594 77.324 41.8011 77.3768C41.676 77.4382 41.5675 77.5287 41.4846 77.6408Z" fill="#FFDA41"></path><path d="M43.5533 77.1978L43.9225 77.3562C43.9225 77.3562 44.9775 80.6301 44.872 81.2637C44.7665 81.8974 44.5028 84.0623 44.3445 84.0623C44.1863 84.0623 43.8698 83.7455 43.8698 83.7455V83.2175C43.8698 83.1119 43.7116 82.795 43.8171 82.795C43.9226 82.795 44.0808 82.6894 43.9753 82.5838C43.8698 82.4782 43.7643 82.3198 43.8698 82.1614C43.9753 82.003 44.028 81.9502 43.9753 81.7917C43.9225 81.6333 43.8171 81.4749 43.9225 81.3693C44.028 81.2637 43.6588 80.7356 43.6588 80.7356L43.0786 78.4122L43.1841 77.4618L43.5533 77.1978Z" fill="#FFDA41"></path><path d="M43.7371 82.0006C43.7371 82.0006 41.7327 81.8422 41.469 81.8422C41.2053 81.8422 40.6136 81.5935 40.6136 81.5935C40.6136 81.5935 39.0955 83.1095 39.6229 85.5913C40.1504 88.0731 40.2559 91.1358 40.5723 92.0334C40.7874 92.6734 40.9636 93.3259 41.0998 93.9872C41.0998 93.9872 41.6272 93.0367 42.6294 94.0928C42.6294 94.0928 42.7349 93.3007 42.5767 92.9839C42.4184 92.6671 42.2075 90.9773 42.2075 90.9773C42.2075 90.9773 41.8382 88.2843 41.8382 87.9675C41.8382 87.6507 41.6273 84.9576 41.68 84.9048C41.7327 84.852 41.9965 86.9642 42.0492 87.3338C42.102 87.7034 42.2602 90.5549 42.4184 90.8717C42.5767 91.1886 43.3151 93.7232 43.7371 93.8816C44.159 94.04 45.5832 93.8288 45.5304 93.7232C45.4777 93.6176 45.1085 93.0367 45.003 92.8783L44.581 92.2446L43.5788 88.8123L44.0535 84.6408C44.0535 84.6408 44.3173 81.9478 43.7371 82.0006Z" fill="#3F3D56"></path><path d="M41.9737 75.4537H40.6886C40.634 75.4537 40.5813 75.4342 40.5398 75.3988C40.4984 75.3633 40.4709 75.3142 40.4624 75.2603L40.3347 74.4504H42.3391L42.1599 75.3025C42.1509 75.3453 42.1275 75.3837 42.0936 75.4112C42.0597 75.4387 42.0174 75.4537 41.9737 75.4537Z" fill="#3F3D56"></path><path d="M108.108 75.2747H110.136V78.1747C109.87 78.1747 109.606 78.1222 109.36 78.0202C109.114 77.9182 108.89 77.7686 108.702 77.5801C108.514 77.3916 108.364 77.1678 108.262 76.9215C108.161 76.6752 108.108 76.4113 108.108 76.1447V75.2747Z" fill="#3F3D56"></path><path d="M106.881 92.3076L106.736 93.0326H107.75L107.798 92.3076H106.881Z" fill="#A0616A"></path><path d="M106.798 92.9538C106.798 92.9538 106.605 92.8089 106.508 92.9055C106.411 93.0022 106.073 94.8872 106.025 94.9355C105.977 94.9839 104.529 95.7089 104.866 95.7572C105.204 95.8055 106.508 95.8539 106.701 95.7572C106.894 95.6605 107.425 94.7422 107.425 94.7422V95.5639H107.522C107.522 95.5639 107.618 94.6939 107.86 94.4522C108.101 94.2105 107.667 93.3888 107.667 93.3888C107.667 93.3888 107.763 92.8572 107.715 92.8572C107.667 92.8572 106.798 92.9538 106.798 92.9538Z" fill="#3B69B6"></path><path d="M109.899 91.7583L109.754 92.4834H110.768L110.817 91.7583H109.899Z" fill="#A0616A"></path><path d="M108.657 86.9619C108.657 86.9619 109.14 88.4119 109.236 88.557C109.333 88.702 109.671 91.4086 109.671 91.4086C109.671 91.4086 109.333 91.9403 109.767 91.9887C110.202 92.037 110.009 91.892 110.298 91.9887C110.377 92.0185 110.462 92.0296 110.545 92.0212C110.629 92.0128 110.71 91.9851 110.781 91.9403C110.781 91.9403 110.926 91.6503 110.829 91.5536C110.733 91.457 110.926 88.9436 110.926 88.9436L110.636 88.0736L110.395 85.3186C110.395 85.3186 110.685 84.5936 110.54 84.4002C110.395 84.2069 109.912 84.5453 109.912 84.5453L108.657 86.9619Z" fill="#3F3D56"></path><path d="M108.075 83.2417C108.075 83.2417 107.93 84.7884 107.833 84.885C107.737 84.9817 106.675 87.6884 106.675 87.6884C106.675 87.6884 106.385 88.0267 106.481 89.2834C106.578 90.54 106.819 91.7967 106.819 91.7967C106.819 91.7967 106.626 92.5217 106.964 92.5217C107.302 92.5217 107.447 92.3284 107.592 92.4734C107.737 92.6184 107.833 92.4734 107.882 92.3767C107.93 92.28 108.123 91.9417 108.123 91.8451C108.123 91.7484 108.316 89.2834 108.316 89.2834C108.316 89.2834 109.909 85.755 110.054 85.5617C110.199 85.3684 111.02 84.305 110.971 83.58L108.075 83.2417Z" fill="#3F3D56"></path><path d="M109.396 76.7553C109.956 76.7553 110.41 76.3009 110.41 75.7403C110.41 75.1798 109.956 74.7253 109.396 74.7253C108.836 74.7253 108.382 75.1798 108.382 75.7403C108.382 76.3009 108.836 76.7553 109.396 76.7553Z" fill="#A0616A"></path><path d="M109.206 76.6789C109.206 76.6789 109.592 77.5489 109.64 77.7906C109.688 78.0322 110.606 77.3072 110.606 77.3072C110.606 77.3072 110.123 76.4855 110.268 76.0989L109.206 76.6789Z" fill="#A0616A"></path><path d="M110.572 77.0502C110.572 77.0502 109.848 76.5185 109.316 77.6302C108.785 78.7418 108.641 78.6935 108.641 78.6935C108.641 78.6935 108.013 78.8868 108.206 80.2402C108.399 81.5935 107.578 83.3818 107.916 83.4785C108.254 83.5752 111.393 84.1068 111.393 83.7202C111.393 83.3335 111.103 81.8352 111.344 80.9168C111.586 79.9985 111.006 76.8085 110.572 77.0502Z" fill="#3F3D56"></path><path d="M109.938 77.4724C109.938 77.4724 109.358 78.3424 109.407 79.0191C109.455 79.6958 109.455 80.1308 109.455 80.1308C109.455 80.1308 108.489 84.7708 108.682 84.7708C108.876 84.7708 109.455 85.0125 109.503 84.8675C109.551 84.7225 110.758 81.7741 110.758 81.7741C110.758 81.7741 111.048 78.8258 110.71 78.1491C110.372 77.4724 109.938 77.4724 109.938 77.4724Z" fill="#3F3D56"></path><path d="M108.824 84.6155C108.824 84.6155 108.341 86.2588 109.017 86.3072C109.693 86.3555 109.307 84.7121 109.307 84.7121L108.824 84.6155Z" fill="#A0616A"></path><path d="M110.118 92.1176C110.118 92.1176 109.949 91.9906 109.865 92.0753C109.78 92.1599 109.484 93.8107 109.442 93.853C109.4 93.8953 108.131 94.5303 108.427 94.5726C108.723 94.6149 109.865 94.6572 110.034 94.5726C110.203 94.4879 110.668 93.6837 110.668 93.6837V94.4033H110.753C110.753 94.4033 110.837 93.6414 111.048 93.4297C111.26 93.2181 110.879 92.4985 110.879 92.4985C110.879 92.4985 110.964 92.033 110.922 92.033C110.879 92.033 110.118 92.1176 110.118 92.1176Z" fill="#3B69B6"></path><path d="M108.818 74.9797C108.851 74.9404 108.893 74.9105 108.94 74.8931C108.985 74.8851 109.031 74.889 109.074 74.9046C109.376 74.993 109.639 75.1842 109.816 75.4452C109.851 75.5118 109.902 75.5678 109.966 75.6074C110.007 75.6198 110.048 75.6352 110.087 75.6535C110.2 75.7282 110.133 75.9013 110.068 76.0202C109.901 76.3258 109.825 76.6722 109.846 77.0195C109.845 77.0799 109.863 77.1392 109.897 77.1889C109.952 77.2395 110.023 77.2681 110.098 77.2691C110.332 77.2985 110.568 77.3112 110.804 77.3069C111.035 77.3028 111.292 77.27 111.441 77.0937C111.602 76.9042 111.577 76.614 111.472 76.3884C111.368 76.1629 111.197 75.9743 111.077 75.757C110.962 75.5274 110.871 75.2865 110.806 75.0382C110.723 74.7212 110.588 74.4201 110.407 74.1467C110.316 74.0105 110.198 73.8945 110.06 73.806C109.922 73.7175 109.767 73.6584 109.606 73.6323C109.167 73.5833 108.763 73.8537 108.41 74.1194C108.014 74.4178 107.593 74.787 107.561 75.2821C107.535 75.6832 107.776 76.046 107.902 76.4278C108.096 77.017 108.014 77.6571 107.931 78.2719C108.289 78.0575 108.693 77.7598 108.67 77.3433C108.654 77.0623 108.442 76.8381 108.31 76.5895C107.948 75.9059 108.361 75.4476 108.818 74.9797Z" fill="#3F3D56"></path><path d="M123.025 79.9208C123.332 79.3846 123.491 78.7763 123.485 78.1585C123.485 76.5658 122.499 75.2747 121.284 75.2747C120.069 75.2747 119.084 76.5658 119.084 78.1585C119.078 78.7763 119.236 79.3846 119.543 79.9208C119.242 80.4592 119.084 81.066 119.084 81.6831C119.084 82.3002 119.242 82.907 119.543 83.4454C119.242 83.9839 119.084 84.5907 119.084 85.2078C119.084 85.8249 119.242 86.4316 119.543 86.9701C119.242 87.5085 119.084 88.1153 119.084 88.7324C119.084 89.3495 119.242 89.9563 119.543 90.4947C119.236 91.0309 119.078 91.6392 119.084 92.2571C119.084 93.8497 120.069 95.1409 121.284 95.1409C122.499 95.1409 123.485 93.8497 123.485 92.2571C123.491 91.6392 123.332 91.0309 123.025 90.4947C123.326 89.9563 123.485 89.3495 123.485 88.7324C123.485 88.1153 123.326 87.5085 123.025 86.9701C123.326 86.4316 123.485 85.8249 123.485 85.2078C123.485 84.5907 123.326 83.9839 123.025 83.4454C123.326 82.907 123.485 82.3002 123.485 81.6831C123.485 81.066 123.326 80.4592 123.025 79.9208Z" fill="#3F3D56"></path><path d="M121.284 77.7456C122.499 77.7456 123.484 76.4545 123.484 74.8618C123.484 73.2691 122.499 71.978 121.284 71.978C120.069 71.978 119.083 73.2691 119.083 74.8618C119.083 76.4545 120.069 77.7456 121.284 77.7456Z" fill="#3F3D56"></path><path d="M121.284 74.1741C122.499 74.1741 123.484 72.883 123.484 71.2903C123.484 69.6976 122.499 68.4065 121.284 68.4065C120.069 68.4065 119.083 69.6976 119.083 71.2903C119.083 72.883 120.069 74.1741 121.284 74.1741Z" fill="#3F3D56"></path><path d="M129.677 47.0216C129.977 46.6385 130.251 46.235 130.496 45.814L124.714 44.8634L130.967 44.9099C131.567 43.6033 131.895 42.1879 131.929 40.7502C131.964 39.3126 131.705 37.8831 131.169 36.549L122.779 40.9059L130.516 35.2123C129.791 33.9583 128.816 32.8672 127.652 32.0069C126.488 31.1466 125.159 30.5355 123.748 30.2118C122.337 29.8881 120.875 29.8587 119.453 30.1253C118.03 30.392 116.678 30.949 115.48 31.7617C114.282 32.5744 113.264 33.6254 112.489 34.8492C111.715 36.073 111.2 37.4434 110.977 38.8749C110.755 40.3065 110.829 41.7686 111.196 43.1702C111.562 44.5718 112.213 45.8828 113.108 47.0216C112.639 47.618 112.236 48.2631 111.906 48.9459L119.411 52.8495L111.408 50.1607C110.846 51.8236 110.707 53.6005 111.004 55.3307C111.301 57.0609 112.024 58.6897 113.108 60.0697C111.885 61.6261 111.124 63.4957 110.912 65.4646C110.701 67.4334 111.047 69.4222 111.911 71.2034C112.775 72.9846 114.123 74.4865 115.799 75.5372C117.476 76.588 119.414 77.1452 121.392 77.1452C123.37 77.1452 125.308 76.588 126.985 75.5372C128.661 74.4865 130.009 72.9846 130.873 71.2034C131.737 69.4222 132.083 67.4334 131.872 65.4646C131.66 63.4957 130.899 61.6261 129.677 60.0697C131.138 58.2097 131.932 55.912 131.932 53.5456C131.932 51.1793 131.138 48.8816 129.677 47.0216V47.0216Z" fill="#DBDBDB"></path><path d="M110.852 53.727C110.848 56.094 111.643 58.3928 113.108 60.2511C111.885 61.8075 111.124 63.6771 110.912 65.6459C110.701 67.6148 111.047 69.6036 111.911 71.3848C112.775 73.166 114.123 74.6679 115.799 75.7186C117.476 76.7694 119.414 77.3266 121.392 77.3266C123.37 77.3266 125.308 76.7694 126.985 75.7186C128.661 74.6679 130.009 73.166 130.873 71.3848C131.737 69.6036 132.083 67.6148 131.872 65.6459C131.66 63.6771 130.899 61.8075 129.677 60.2511C131.089 58.4556 110.852 52.5427 110.852 53.727Z" fill="#DBDBDB"></path><path d="M129.677 47.0216C129.977 46.6385 130.251 46.235 130.496 45.814L124.714 44.8634L130.967 44.9099C131.567 43.6033 131.895 42.1879 131.929 40.7502C131.964 39.3126 131.705 37.8831 131.169 36.549L122.779 40.9059L130.516 35.2123C129.791 33.9583 128.816 32.8672 127.652 32.0069C126.488 31.1466 125.159 30.5355 123.748 30.2118C122.337 29.8881 120.875 29.8587 119.453 30.1253C118.03 30.392 116.678 30.949 115.48 31.7617C114.282 32.5744 113.264 33.6254 112.489 34.8492C111.715 36.073 111.2 37.4434 110.977 38.8749C110.755 40.3065 110.829 41.7686 111.196 43.1702C111.562 44.5718 112.213 45.8828 113.108 47.0216C112.639 47.618 112.236 48.2631 111.906 48.9459L119.411 52.8495L111.408 50.1607C110.846 51.8236 110.707 53.6005 111.004 55.3307C111.301 57.0609 112.024 58.6897 113.108 60.0697C111.885 61.6261 111.124 63.4957 110.912 65.4646C110.701 67.4334 111.047 69.4222 111.911 71.2034C112.775 72.9846 114.123 74.4865 115.799 75.5372C117.476 76.588 119.414 77.1452 121.392 77.1452C123.37 77.1452 125.308 76.588 126.985 75.5372C128.661 74.4865 130.009 72.9846 130.873 71.2034C131.737 69.4222 132.083 67.4334 131.872 65.4646C131.66 63.4957 130.899 61.6261 129.677 60.0697C131.138 58.2097 131.932 55.912 131.932 53.5456C131.932 51.1793 131.138 48.8816 129.677 47.0216V47.0216Z" fill="#57B894"></path><path opacity="0.1" d="M110.852 53.727C110.848 56.094 111.643 58.3928 113.108 60.2511C111.885 61.8075 111.124 63.6771 110.912 65.6459C110.701 67.6148 111.047 69.6036 111.911 71.3848C112.775 73.166 114.123 74.6679 115.799 75.7186C117.476 76.7694 119.414 77.3266 121.392 77.3266C123.37 77.3266 125.308 76.7694 126.985 75.7186C128.661 74.6679 130.009 73.166 130.873 71.3848C131.737 69.6036 132.083 67.6148 131.872 65.6459C131.66 63.6771 130.899 61.8075 129.677 60.2511C131.089 58.4556 110.852 52.5427 110.852 53.727Z" fill="#3F3D56"></path><path d="M12.4478 79.9208C12.7546 79.3846 12.9131 78.7763 12.907 78.1585C12.907 76.5658 11.9219 75.2747 10.7066 75.2747C9.49132 75.2747 8.50615 76.5658 8.50615 78.1585C8.50008 78.7763 8.65861 79.3846 8.96543 79.9208C8.66428 80.4592 8.50615 81.066 8.50615 81.6831C8.50615 82.3002 8.66428 82.907 8.96543 83.4454C8.66428 83.9839 8.50615 84.5907 8.50615 85.2078C8.50615 85.8249 8.66428 86.4316 8.96543 86.9701C8.66428 87.5085 8.50615 88.1153 8.50615 88.7324C8.50615 89.3495 8.66428 89.9563 8.96543 90.4947C8.65861 91.0309 8.50008 91.6392 8.50615 92.2571C8.50615 93.8497 9.49132 95.1409 10.7066 95.1409C11.9219 95.1409 12.907 93.8497 12.907 92.2571C12.9131 91.6392 12.7546 91.0309 12.4478 90.4947C12.7489 89.9563 12.907 89.3495 12.907 88.7324C12.907 88.1153 12.7489 87.5085 12.4478 86.9701C12.7489 86.4316 12.907 85.8249 12.907 85.2078C12.907 84.5907 12.7489 83.9839 12.4478 83.4454C12.7489 82.907 12.907 82.3002 12.907 81.6831C12.907 81.066 12.7489 80.4592 12.4478 79.9208Z" fill="#3F3D56"></path><path d="M10.7064 77.7456C11.9217 77.7456 12.9069 76.4545 12.9069 74.8618C12.9069 73.2691 11.9217 71.978 10.7064 71.978C9.49115 71.978 8.50598 73.2691 8.50598 74.8618C8.50598 76.4545 9.49115 77.7456 10.7064 77.7456Z" fill="#3F3D56"></path><path d="M10.7064 74.1741C11.9217 74.1741 12.9069 72.883 12.9069 71.2903C12.9069 69.6976 11.9217 68.4065 10.7064 68.4065C9.49115 68.4065 8.50598 69.6976 8.50598 71.2903C8.50598 72.883 9.49115 74.1741 10.7064 74.1741Z" fill="#3F3D56"></path><path d="M18.8246 47.0216C19.1252 46.6385 19.3991 46.235 19.6441 45.814L13.8623 44.8634L20.1155 44.9099C20.7153 43.6033 21.0426 42.1879 21.0772 40.7502C21.1118 39.3126 20.8531 37.8831 20.3168 36.549L11.9273 40.9059L19.6643 35.2123C18.9395 33.9583 17.9645 32.8672 16.8 32.0069C15.6356 31.1466 14.3067 30.5355 12.8961 30.2118C11.4855 29.8881 10.0234 29.8587 8.6009 30.1253C7.17843 30.392 5.82604 30.949 4.62798 31.7617C3.42993 32.5744 2.41187 33.6254 1.63722 34.8492C0.862581 36.073 0.347953 37.4434 0.125397 38.8749C-0.0971596 40.3065 -0.0228759 41.7686 0.343621 43.1702C0.710118 44.5718 1.36098 45.8828 2.25565 47.0216C1.78706 47.618 1.38404 48.2631 1.05359 48.9459L8.55882 52.8495L0.556146 50.1607C-0.00576165 51.8236 -0.144627 53.6005 0.152116 55.3307C0.448858 57.0609 1.17184 58.6897 2.25565 60.0697C1.03277 61.6261 0.272057 63.4957 0.0604773 65.4646C-0.151102 67.4334 0.194992 69.4222 1.05919 71.2034C1.92339 72.9846 3.27082 74.4865 4.94742 75.5372C6.62402 76.588 8.56212 77.1452 10.5401 77.1452C12.5182 77.1452 14.4563 76.588 16.1329 75.5372C17.8095 74.4865 19.1569 72.9846 20.0211 71.2034C20.8853 69.4222 21.2314 67.4334 21.0198 65.4646C20.8082 63.4957 20.0475 61.6261 18.8246 60.0697C20.2859 58.2097 21.0803 55.912 21.0803 53.5456C21.0803 51.1793 20.2859 48.8816 18.8246 47.0216L18.8246 47.0216Z" fill="#DBDBDB"></path><path d="M1.24419e-05 53.727C-0.00362678 56.094 0.791183 58.3928 2.25565 60.2511C1.03278 61.8075 0.272061 63.6771 0.0604813 65.6459C-0.151098 67.6148 0.194996 69.6036 1.0592 71.3848C1.9234 73.166 3.27082 74.6679 4.94742 75.7186C6.62402 76.7694 8.56212 77.3266 10.5401 77.3266C12.5182 77.3266 14.4563 76.7694 16.1329 75.7186C17.8095 74.6679 19.1569 73.166 20.0211 71.3848C20.8853 69.6036 21.2314 67.6148 21.0198 65.6459C20.8082 63.6771 20.0475 61.8075 18.8246 60.2511C20.2373 58.4556 1.24419e-05 52.5427 1.24419e-05 53.727Z" fill="#DBDBDB"></path><path d="M18.8246 47.0216C19.1252 46.6385 19.3991 46.235 19.6441 45.814L13.8623 44.8634L20.1155 44.9099C20.7153 43.6033 21.0426 42.1879 21.0772 40.7502C21.1118 39.3126 20.8531 37.8831 20.3168 36.549L11.9273 40.9059L19.6643 35.2123C18.9395 33.9583 17.9645 32.8672 16.8 32.0069C15.6356 31.1466 14.3067 30.5355 12.8961 30.2118C11.4855 29.8881 10.0234 29.8587 8.6009 30.1253C7.17843 30.392 5.82604 30.949 4.62798 31.7617C3.42993 32.5744 2.41187 33.6254 1.63722 34.8492C0.862581 36.073 0.347953 37.4434 0.125397 38.8749C-0.0971596 40.3065 -0.0228759 41.7686 0.343621 43.1702C0.710118 44.5718 1.36098 45.8828 2.25565 47.0216C1.78706 47.618 1.38404 48.2631 1.05359 48.9459L8.55882 52.8495L0.556146 50.1607C-0.00576165 51.8236 -0.144627 53.6005 0.152116 55.3307C0.448858 57.0609 1.17184 58.6897 2.25565 60.0697C1.03277 61.6261 0.272057 63.4957 0.0604773 65.4646C-0.151102 67.4334 0.194992 69.4222 1.05919 71.2034C1.92339 72.9846 3.27082 74.4865 4.94742 75.5372C6.62402 76.588 8.56212 77.1452 10.5401 77.1452C12.5182 77.1452 14.4563 76.588 16.1329 75.5372C17.8095 74.4865 19.1569 72.9846 20.0211 71.2034C20.8853 69.4222 21.2314 67.4334 21.0198 65.4646C20.8082 63.4957 20.0475 61.6261 18.8246 60.0697C20.2859 58.2097 21.0803 55.912 21.0803 53.5456C21.0803 51.1793 20.2859 48.8816 18.8246 47.0216L18.8246 47.0216Z" fill="#57B894"></path><path opacity="0.1" d="M1.24419e-05 53.727C-0.00362678 56.094 0.791183 58.3928 2.25565 60.2511C1.03278 61.8075 0.272061 63.6771 0.0604813 65.6459C-0.151098 67.6148 0.194996 69.6036 1.0592 71.3848C1.9234 73.166 3.27082 74.6679 4.94742 75.7186C6.62402 76.7694 8.56212 77.3266 10.5401 77.3266C12.5182 77.3266 14.4563 76.7694 16.1329 75.7186C17.8095 74.6679 19.1569 73.166 20.0211 71.3848C20.8853 69.6036 21.2314 67.6148 21.0198 65.6459C20.8082 63.6771 20.0475 61.8075 18.8246 60.2511C20.2373 58.4556 1.24419e-05 52.5427 1.24419e-05 53.727Z" fill="#3F3D56"></path><path d="M75.897 46.4285L70.6672 51.6642L68.1893 49.1836L67.2246 50.1493L70.6639 53.5925L76.8618 47.3942L75.897 46.4285Z" fill="#57B894"></path><path d="M92.6345 34.6155L87.4047 39.8512L84.9268 37.3706L83.9621 38.3363L87.4014 41.7795L93.5993 35.5812L92.6345 34.6155Z" fill="#57B894"></path></g><defs><clipPath id="clip0"><rect width="131.98" height="100" fill="white"></rect></clipPath></defs></svg>