<svg width="31" height="34" viewBox="0 0 31 34" fill="none" xmlns="http://www.w3.org/2000/svg" class="Card__Img Quotes"><path fill-rule="evenodd" clip-rule="evenodd" d="M28.418 1.30359C28.6235 0.658562 28.1421 0 27.4652 0H22.3333L18 13.6V33C18 33.5523 18.4477 34 19 34H30C30.5523 34 31 33.5523 31 33V14.6C31 14.0477 30.5523 13.6 30 13.6H24.5L28.418 1.30359ZM10.418 1.30359C10.6235 0.658562 10.1421 0 9.46517 0H4.33333L0 13.6V33C0 33.5523 0.447716 34 1 34L12 34C12.5523 34 13 33.5523 13 33V14.6C13 14.0477 12.5523 13.6 12 13.6H6.5L10.418 1.30359Z" fill="#0B3D91"></path><mask class="mask0" maskUnits="userSpaceOnUse" x="0" y="0" width="31" height="34"><path fill-rule="evenodd" clip-rule="evenodd" d="M28.418 1.30359C28.6235 0.658562 28.1421 0 27.4652 0H22.3333L18 13.6V33C18 33.5523 18.4477 34 19 34H30C30.5523 34 31 33.5523 31 33V14.6C31 14.0477 30.5523 13.6 30 13.6H24.5L28.418 1.30359ZM10.418 1.30359C10.6235 0.658562 10.1421 0 9.46517 0H4.33333L0 13.6V33C0 33.5523 0.447716 34 1 34L12 34C12.5523 34 13 33.5523 13 33V14.6C13 14.0477 12.5523 13.6 12 13.6H6.5L10.418 1.30359Z" fill="white"></path></mask></svg>