<svg width="270" height="205" viewBox="0 0 270 205" fill="none" xmlns="http://www.w3.org/2000/svg"><path opacity="0.1" d="M133.5 205c56.609 0 102.5-3.358 102.5-7.5 0-4.142-45.891-7.5-102.5-7.5-56.6092 0-102.5 3.358-102.5 7.5 0 4.142 45.8908 7.5 102.5 7.5zM266.846 163.539c-1.119 1.726-2.492 3.273-4.073 4.587-.435.36-.886.71-1.345 1.037-5.869 4.222-13.728 6.078-21.362 7.28-14.823 2.334-29.955 2.788-45.023 3.233-12.686.379-25.379.758-38.07 1.008-18.14.365-36.282.474-54.393 0-9.9007-.26-19.7933-.719-29.6779-1.377-18.3406-1.257-37.1538-3.477-53.1197-11.231-2.9216-1.398-5.7136-3.054-8.3433-4.946-4.33586-3.165-7.90615-6.994-9.81535-11.529-3.07173-7.29-1.448441-15.481 2.06042-22.629 2.12658-4.322 4.88878-8.369 7.75493-12.381 1.6965-2.381 3.4309-4.748 5.0802-7.15.1725-.237.3402-.49.5056-.736.319-.473.6356-.947.9452-1.42 1.2948-1.995 2.5212-4.054 3.6459-6.154 1.1211-2.0941 2.1346-4.2444 3.0363-6.4423.827-2.0083 1.5371-4.063 2.1266-6.1537.3922-1.4083.723-2.8213.9782-4.2343 1.3964-7.6945.6592-15.3843-3.4758-22.3451-.0402-.0686-.0827-.142-.1252-.2106l-.052-.0828c-1.1673-1.9195-2.5755-3.7278-3.9602-5.5431-1.654-2.1775-3.282-4.3692-4.428-6.7667-3.015-6.336-2.3629-13.4601-1.2665-20.2268 1.4626-8.9939 4.1846-18.6979 12.613-24.30485 8.7544-5.83656 21.1831-5.54071 32.05-3.45318C75.9974 4.603 91.59 11.3887 107.334 17.5116c15.744 6.123 32.227 11.7228 49.537 12.3216 15.286.5326 33.114-3.4437 43.257-13.7867 9.854-10.04234 28.376-10.80682 41.731-4.7336 12.741 5.7869 20.98 18.0375 20.361 30.2692-.903 17.815-18.043 31.4786-28.27 47.0665-.458.6958-.904 1.4082-1.33 2.1301-4.017 6.7999-6.491 14.6083-3.528 21.6873 3.975 9.484 15.775 14.111 25.727 20.068 4.806 2.876 9.192 6.064 12.027 10.267.107.152.204.301.3.45 4.001 6.201 3.698 14.12-.3 20.288z" fill="#0B3D91"></path><path opacity="0.3" d="M17.5228 107.56c1.2928-1.996 2.5171-4.056 3.64-6.157 1.12-2.0934 2.1326-4.2432 3.0338-6.4407.8257-2.0093 1.5346-4.065 2.1231-6.1567.3916-1.4089.7219-2.8226.9767-4.2363 1.3942-7.6982.6581-15.3917-3.4702-22.3559-.0401-.0687-.0826-.1421-.125-.2108l-4.0104-5.6286h29.7595v19.8341h8.2779v59.4949H68.41v-19.299h12.8168v19.299h10.6747v-32.969h.5332V85.5805h10.1443v17.1535h23.498v25.73h13.086v-8.051h8.021v8.051h13.083V52.3437h17.089V40.2813h2.937v12.0624h4.805v23.8549h8.547V56.3645h7.21V36h14.951v20.3645h7.212v19.8341h8.811v14.8495c-4.01 6.8032-6.48 14.6149-3.522 21.6979 3.968 9.488 15.749 14.118 25.685 20.078 4.799 2.879 9.177 6.069 12.008 10.274v20.756c-1.118 1.724-2.489 3.269-4.067 4.582-.434.36-.885.71-1.342 1.037-5.86 4.224-13.706 6.081-21.329 7.284-14.798 2.334-29.905 2.789-44.949 3.234-12.666.379-25.339.758-38.009 1.009h-54.31c-9.8849-.26-19.7615-.72-29.6302-1.378-18.311-1.258-37.0938-3.479-53.034-11.236A54.75493 54.75493 0 0111 163.437v-46.562c1.6938-2.382 3.4254-4.75 5.072-7.153l1.4508-2.162z" fill="#0B3D91"></path><path opacity="0.4" d="M28 84v4h-1c.3951-1.3304.7317-2.6652 1-4zM42 88h11v-6H42v6zM28 95v6h-6c1.0985-1.9501 2.0921-3.9527 2.9769-6H28zM42 101h11v-6H42v6zM18.423 107H28v6H17v-3.982L18.423 107zM42 114h11v-6H42v6zM28 120H17v6h11v-6zM42 126h11v-6H42v6zM28 132H17v6h11v-6zM42 139h11v-6H42v6zM28 145H17v6h11v-6zM42 151h11v-6H42v6zM28 158H17v6h11v-6zM42 164h11v-6H42v6zM88 142H62v3h26v-3zM88 147H62v3h26v-3zM88 151H62v3h26v-3zM157 143h-26v3h26v-3zM157 148h-26v3h26v-3zM157 153h-26v3h26v-3zM88 156H62v3h26v-3zM88 161H62v3h26v-3zM88 166H62v3h26v-3zM105 109h-7v9h7v-9zM114 118h7v-9h-7v9zM105 124h-7v9h7v-9zM114 133h7v-9h-7v9zM105 139h-7v9h7v-9zM114 148h7v-9h-7v9zM105 154h-7v9h7v-9zM114 163h7v-9h-7v9zM171 58h-10v12h10V58zM171 76h-10v12h10V76zM171 94h-10v12h10V94zM171 111h-10v12h10v-12zM171 129h-10v12h10v-12zM171 147h-10v12h10v-12zM227 83h-36v10h36V83zM227 106h-36v10h36v-10zM228 128h-36v10h36v-10zM228 151h-36v10h36v-10zM24.1252 62v.2103c-.0401-.0685-.0827-.1418-.1252-.2103h.1252zM266.846 142.706v3.865h-12.027v-14.12c4.806 2.869 9.191 6.055 12.027 10.255zM266.846 153.524v9.905c-1.12 1.725-2.493 3.27-4.074 4.584-.435.359-.886.709-1.344 1.036h-6.616v-15.525h12.034z" fill="#fff"></path><path opacity="0.1" d="M82.2303 48.4983h-1.8406c.3415 0 .669-.1358.9105-.3775.2415-.2417.3772-.5696.3772-.9114 0-.3419-.1357-.6697-.3772-.9115-.2415-.2417-.569-.3775-.9105-.3775H65.4828c-.3416 0-.6691.1358-.9106.3775-.2415.2418-.3772.5696-.3772.9115 0 .3418.1357.6697.3772.9114.2415.2417.569.3775.9106.3775h1.8406c-.3323.0143-.6463.1564-.8764.3968-.2301.2404-.3585.5605-.3585.8934s.1284.653.3585.8933c.2301.2404.5441.3826.8764.3968h-2.5755c-.3415 0-.669.1358-.9105.3776-.2415.2417-.3772.5695-.3772.9114s.1357.6697.3772.9114c.2415.2418.569.3776.9105.3776h14.9046c.3415 0 .6691-.1358.9105-.3776.2415-.2417.3772-.5695.3772-.9114s-.1357-.6697-.3772-.9114c-.2414-.2418-.569-.3776-.9105-.3776h2.5778c.3323-.0142.6463-.1564.8763-.3968.2301-.2403.3586-.5604.3586-.8933s-.1285-.653-.3586-.8934c-.23-.2404-.544-.3825-.8763-.3968zM148.023 80.8902h-1.841c.342 0 .669-.1358.911-.3775.241-.2418.377-.5696.377-.9115 0-.3418-.136-.6697-.377-.9114-.242-.2417-.569-.3775-.911-.3775h-14.907c-.341 0-.669.1358-.91.3775-.242.2417-.378.5696-.378.9114 0 .3419.136.6697.378.9115.241.2417.569.3775.91.3775h1.836c-.332.0142-.646.1564-.876.3968-.23.2404-.359.5604-.359.8933s.129.653.359.8934c.23.2404.544.3825.876.3968h-2.575c-.17 0-.337.0333-.493.0981-.156.0648-.298.1597-.418.2794-.12.1197-.214.2618-.279.4182-.065.1564-.098.324-.098.4932 0 .1693.033.3369.098.4933.065.1564.159.2985.279.4182.12.1197.262.2146.418.2794.156.0648.323.0981.493.0981h14.909c.341 0 .669-.1358.91-.3775.242-.2417.378-.5696.378-.9115 0-.3418-.136-.6697-.378-.9114-.241-.2417-.569-.3775-.91-.3775h2.578c.332-.0143.646-.1564.876-.3968.23-.2404.359-.5605.359-.8934s-.129-.6529-.359-.8933c-.23-.2404-.544-.3826-.876-.3968zM260.083 38.5933h-1.84c.341 0 .669-.1358.91-.3775.242-.2417.377-.5696.377-.9115 0-.3418-.135-.6697-.377-.9114-.241-.2417-.569-.3775-.91-.3775h-14.907c-.342 0-.669.1358-.911.3775-.241.2417-.377.5696-.377.9114 0 .3419.136.6698.377.9115.242.2417.569.3775.911.3775h1.84c-.341 0-.669.1358-.91.3775-.242.2418-.377.5696-.377.9115 0 .3418.135.6697.377.9114.241.2417.569.3775.91.3775h-2.575c-.332.0143-.646.1564-.876.3968-.231.2404-.359.5605-.359.8934s.128.6529.359.8933c.23.2404.544.3826.876.3968h14.904c.174.0075.348-.0204.511-.0818.163-.0615.311-.1553.437-.2759.126-.1205.226-.2653.294-.4255.069-.1603.104-.3327.104-.5069 0-.1742-.035-.3467-.104-.5069-.068-.1603-.168-.305-.294-.4256-.126-.1205-.274-.2143-.437-.2758-.163-.0615-.337-.0893-.511-.0819h2.578c.342 0 .669-.1358.911-.3775.241-.2417.377-.5696.377-.9114 0-.3419-.136-.6697-.377-.9115-.242-.2417-.569-.3775-.911-.3775z" fill="#0B3D91"></path><path d="M238.691 102.095l.014-.021-.057-.038-.116-.078c.008.005.016.012.021.019-.101-.059-.221-.078-.336-.054-.115.025-.216.091-.285.187l-.071.097-3.308 4.753-.579.835c-1.739-.525-4.565 1.684-5.999 2.95l-.25.224c-.114-.255-.18-.416-.18-.416-.071.776-2.814 1.942-3.454 2.365-.289.174-.611.284-.945.322.089-2.959-2.193-6.071-2.193-6.071l-5.579-7.115c-.205-1.2857-.006-2.604.57-3.7719.045-.0922.094-.1844.146-.2767h.267c.456-.0004.91-.0408 1.359-.1206 1.642-.2915 3.139-1.1268 4.25-2.3719 1.111-1.2451 1.772-2.8277 1.877-4.4939.562-.1443 1.039-.667.959-1.2677.021-.1141.021-.2312 0-.3453-.015-.0719-.037-.1423-.064-.2105-.158-.4044-.498-.7308-.744-1.0997-.345-.5406-.529-1.168-.532-1.8093.022-.5602.109-1.1158.26-1.6556.113-.322.166-.6617.158-1.0028v-.0686c.005-.0892.001-.1787-.011-.2672-.011-.0633-.026-.1258-.045-.1869-.138-.3805-.401-.7026-.747-.9129-.884-.5771-2.015-.5865-3.008-.946-1.441-.5274-2.743-1.8306-4.253-1.516-.822.1703-1.453.8017-2.164 1.2464-.785.4913-1.686.7655-2.611.7946-.777.0237-1.564-.1277-2.33 0-.137.0246-.272.061-.404.1088-.651-.2214-1.335-.3294-2.022-.3192-.675-.0175-1.339.1661-1.91.5274-1.034.7213-1.308 2.1285-1.294 3.3797a.07929.07929 0 000 .0307v.2365c0 .6007.059 1.2109.071 1.8117.005.5606-.074 1.1189-.237 1.6555-.472 1.4853-1.84 2.6205-2.114 4.1602-.047.2653-.063.5351-.048.8041-.019.8703.26 1.7431.518 2.5874.534 1.7454.945 3.5996.959 5.4117-.011 1.125-.235 2.238-.659 3.28-.128.305-.286.595-.473.868-.061.085-.125.17-.193.251l-.026.03c-.06.069-.123.133-.187.194l-.052.05c-.061.054-.125.104-.191.151l-.064.048c-.089.06-.182.113-.279.158l.472-.028c-.144.12-.303.222-.472.302l2.509-.146c.007.027.011.055.012.083-.007.062-.019.124-.035.184-.017.059-.038.116-.062.173.001.008.001.015 0 .023-.051.113-.116.219-.194.315l-.021.024c-.038.047-.08.092-.125.134-.043.039-.089.075-.137.107l-.031.023c-.05.033-.102.062-.156.088-.052.024-.106.044-.16.061l-.043.012c-.057.016-.116.027-.175.033l.236-.026c.159-.019.317-.04.473-.066h.047c-.201.209-.468.341-.756.376.541-.042 1.074-.148 1.59-.314.326 2.197 1.052 8.892.652 10.129-.427 1.318.664 10.977.664 10.977s.149.74.409 1.844c-.671 1.587-1.436 3.342-1.822 4.047-.77 1.419-.392 8.623 2.269 11.825 0 0 1.101 1.554.81 2.129-.29.575.05 1.556.05 1.556l.42 9.328c-.009.953-.074 1.905-.196 2.85-1.132 1.407-2.882 3.458-3.705 3.784-1.273.518-10.772 12.062-10.772 12.062s.076.139.225.367l-.267.309-1.822 2.115-.144.168c-.343-.064-2.618-.473-4.428-.611l-.177-.011v-.031c-.636-.075-1.279-.058-1.909.05h-.014c-.119.023-.228.08-.315.165-.616.755-.945 12.63-.945 12.63s.657 5.931 2.698 6.272c.107.037.219.058.331.064h.003c.037.002.075.002.113 0 1.465-.107 2.127-.946 2.431-1.526.09-.174.158-.358.204-.549 0 0-.237-1.059.404-2.518.64-1.46 1.828-4.007 1.828-4.007s2.172-2.287 1.784-3.396l.208-.3c.818-1.164 2.465-3.463 3.797-4.998l.26-.295c.486.206.994.354 1.515.439 0 0 2.041-.799 2.802-2.601.324-.762 1.59-2.11 2.939-3.411-.028.223-.042.348-.042.348l-.047 11.352c.438.303.906.56 1.396.769v.284c.01 1.618-.087 3.236-.291 4.841l-.042.251c-.168-.121-.312-.161-.407-.066-.418.423-.678 3.133-.708 4.382v.071c-.029.516-.166 1.131-.166 1.679-.014.797.237 1.469 1.524 1.526 1.6.066 8.48.173 12.164.236 1.985.04 3.917-.645 5.434-1.927.676-.58 1.194-1.223 1.21-1.831.033-.473-.22-.915-.924-1.303-.003.016-.008.032-.014.047-.092-.049-.191-.099-.3-.146l-3.544-.556-6.025-3.077s-.036-1.864-.759-1.554c-.215.045-.422.125-.612.237-.035-.071-.073-.142-.108-.218-.491-.976-.746-2.053-.745-3.145 0-.1 0-.199.014-.301.179-.16.346-.331.501-.513 0 0-.047-4.241.426-5.042.472-.802 1.949-8.907 1.949-8.907s.047-1.507.997-2.403c.95-.897.617-3.486.617-3.486s1.328-.71 1.755-3.016c.428-2.306 1.806-7.35 1.806-7.35s2.849-7.446 2.66-12.157c-.189-4.711.284-7.161.284-7.161l.593-10.948v-.171c.236.183.394.327.394.327v-.118l.137.118s.303-4.967.201-6.937c1.654-.565 4.192-1.495 4.334-1.968.215-.709 3.071-2.932 3.071-2.932-.061-.012-.119-.035-.172-.067.089-.04.182-.09.281-.142 1.866-1.002 5.337-3.928 4.754-5.718l3.795-5.464c.12-.173.178-.382.164-.593-.015-.21-.1-.41-.242-.566zm-30.915-5.3115c-.093.0012-.185.0084-.277.0213-.168-.9749-.405-1.9368-.709-2.8783-.439-1.4805-.912-2.9705-.983-4.5102v-.201c.008-.406.061-.8098.159-1.2038.089.1679.191.3334.295.4895.607.9177 1.316 1.7904 1.689 2.8239.171.4731.27.9863.53 1.4191.26.4328.739.7994 1.245.7213.174-.0278.337-.1022.472-.2152-.678 1.2613-1.49 2.4459-2.421 3.5334z" fill="url(#paint0_linear)"></path><path d="M229.554 115.628c-.274.171-.578.287-.896.341-1.181.033-2.127-3.134-2.127-3.134s.334-.338.863-.811c1.566-1.393 4.855-3.968 6.396-2.528 1.723 1.615-2.223 5.042-4.236 6.132zM211.792 191.157l-4.312 4.659s-3.991.045-3.208-2.159c.153-.477.264-.967.33-1.464.198-1.569.292-3.149.281-4.73 0-1.034-.016-1.757-.016-1.757s6.283-2.756 5.64.113c-.083.366-.127.739-.132 1.114-.005 1.062.238 2.111.708 3.063.199.409.436.798.709 1.161z" fill="#ECB4B6"></path><path opacity="0.1" d="M211.792 191.157l-4.312 4.659s-3.991.045-3.208-2.159c.153-.477.264-.967.33-1.464.57.44 1.39 1.741 1.39 1.741s2.75.804 3.506-1.606c.425-1.348 1.092-2.015 1.6-2.342.193.412.425.804.694 1.171z" fill="#3F3D56"></path><path d="M221.794 198.174c-1.46 1.254-3.329 1.927-5.252 1.892-3.556-.052-10.203-.156-11.746-.22-2.065-.09-1.38-1.854-1.314-3.074v-.123c.024-1.216.277-3.855.681-4.257.404-.402 1.822 1.835 1.822 1.835s2.75.804 3.506-1.606c.756-2.41 2.301-2.658 2.301-2.658.709-.303.735 1.513.735 1.513l5.824 3.009 3.417.539c.111.05.21.102.305.151 1.533.857.853 2.02-.279 2.999z" fill="#0B3D91"></path><path opacity="0.25" d="M211.031 193.543c.14 0 .253-.113.253-.253 0-.139-.113-.252-.253-.252-.139 0-.252.113-.252.252 0 .14.113.253.252.253zM213.394 194.714c.14 0 .253-.113.253-.253s-.113-.253-.253-.253c-.139 0-.253.113-.253.253s.114.253.253.253zM214.611 195.26c.14 0 .253-.113.253-.253 0-.139-.113-.252-.253-.252s-.253.113-.253.252c0 .14.113.253.253.253zM217.132 196.23c.14 0 .253-.113.253-.253s-.113-.253-.253-.253c-.139 0-.253.113-.253.253s.114.253.253.253zM215.849 195.816c.14 0 .253-.113.253-.253 0-.139-.113-.253-.253-.253-.139 0-.253.114-.253.253 0 .14.114.253.253.253z" fill="#fff"></path><path d="M221.794 198.174c-1.46 1.254-3.329 1.927-5.252 1.892-3.556-.052-10.203-.156-11.746-.22-2.065-.089-1.38-1.854-1.314-3.074l12.963.804s5.309-.807 5.625-2.389c1.536.845.856 2.008-.276 2.987z" fill="#0B3D91"></path><path opacity="0.25" d="M221.794 198.122c-1.462 1.249-3.331 1.917-5.252 1.878-3.556-.052-10.203-.154-11.746-.22-2.065-.09-1.38-1.854-1.314-3.074l12.963.801s5.309-.806 5.625-2.388c1.536.861.856 2.024-.276 3.003z" fill="#fff"></path><path d="M197.663 179.45c-.478.389-.914.825-1.302 1.303-1.286 1.497-2.876 3.737-3.665 4.87-.305.44-.491.71-.491.71l-1.72-.256s-1.858-2.838-1.834-2.914c.024-.075 1.467-3.122 1.467-3.122l.56-.655 1.763-2.062.796-.932s5.985 1.932 4.426 3.058z" fill="#ECB4B6"></path><path opacity="0.1" d="M192.696 185.623c-.305.44-.491.709-.491.709l-1.72-.255s-1.858-2.838-1.834-2.914c.024-.075 1.467-3.122 1.467-3.122l.56-.655.185.033h.434c-1.535 1.606.116 5.142.116 5.142s.714.071 1.283 1.062z" fill="#3F3D56"></path><path d="M190.763 189.225s-1.148 2.479-1.767 3.902c-.619 1.424-.39 2.458-.39 2.458-.044.184-.11.363-.196.532-.22.437-.555.807-.969 1.069-.413.262-.89.406-1.38.418-.037.004-.074.004-.111 0-2.081-.054-2.748-6.13-2.748-6.13s.319-11.567.917-12.298c.082-.084.187-.14.303-.161.608-.105 1.228-.122 1.84-.05 1.89.135 4.324.601 4.324.601h.435c-1.536 1.606.113 5.142.113 5.142s.735.068 1.309 1.102c.575 1.033-1.68 3.415-1.68 3.415z" fill="#0B3D91"></path><path opacity="0.25" d="M188.247 186.036c.14 0 .253-.113.253-.252 0-.14-.113-.253-.253-.253s-.253.113-.253.253c0 .139.113.252.253.252zM188.122 188.04c.139 0 .253-.114.253-.253 0-.14-.114-.253-.253-.253-.14 0-.253.113-.253.253 0 .139.113.253.253.253z" fill="#fff"></path><path d="M188.247 196.074c-.284.561-.945 1.381-2.349 1.488h-.097c-2.091-.055-2.757-6.131-2.757-6.131s.321-11.567.917-12.298c.082-.083.187-.139.302-.161.609-.105 1.23-.122 1.843-.049-.035 2.076-.132 8.651 0 9.304.133.653 1.309 6.097 2.141 7.847z" fill="#0B3D91"></path><path opacity="0.25" d="M188.4 196.117c-.22.437-.555.807-.968 1.069-.414.262-.891.407-1.38.418-.037.004-.074.004-.111 0-2.091-.054-2.755-6.13-2.755-6.13s.321-11.567.917-12.298c.081-.084.187-.14.302-.161.609-.105 1.229-.122 1.843-.05-.035 2.077-.135 8.652 0 9.305.135.652 1.318 6.097 2.152 7.847z" fill="#fff"></path><path d="M185.801 197.562c-2.091-.054-2.757-6.13-2.757-6.13s.321-11.568.917-12.299c.082-.083.187-.139.302-.161.44.653.825 2.098.473 5.279-.652 6.026.135 6.405.135 6.405s.966 5.108.93 6.906z" fill="#0B3D91"></path><path opacity="0.1" d="M185.773 197.562c-2.098-.055-2.757-6.135-2.757-6.135s.321-11.568.917-12.299c.081-.083.187-.139.302-.16.439.652.822 2.097.473 5.278-.653 6.027.134 6.405.134 6.405s.978 5.113.931 6.911zM229.554 115.629c-.274.17-.578.286-.896.34-1.181.033-2.127-3.134-2.127-3.134s.334-.338.863-.811c.366.866 1.422 3.176 2.16 3.605z" fill="#3F3D56"></path><path d="M222.052 114.489s.964.068 1.583-.346 3.267-1.549 3.336-2.306c0 0 1.583 3.855 2.476 3.993 0 0-2.75 2.171-2.958 2.859-.208.688-5.572 2.365-5.572 2.365l1.135-6.565z" fill="#FF748E"></path><path d="M222.052 114.489s.964.068 1.583-.346 3.267-1.549 3.336-2.306c0 0 1.583 3.855 2.476 3.993 0 0-2.75 2.171-2.958 2.859-.208.688-5.572 2.365-5.572 2.365l1.135-6.565z" fill="#FFDA41"></path><path opacity="0.1" d="M197.663 179.45c-.478.389-.914.825-1.302 1.303-2.072-.87-3.412-2.644-3.92-3.424l.796-.932s5.985 1.927 4.426 3.053z" fill="#3F3D56"></path><path d="M207.478 159.915s-3.365 4.493-4.593 5.004c-1.229.511-10.397 11.752-10.397 11.752s1.966 3.64 5.6 4.224c0 0 1.973-.78 2.706-2.523.732-1.743 6.509-6.658 6.509-6.658l.175-11.799z" fill="#3F3D56"></path><path opacity="0.1" d="M207.478 159.915s-3.365 4.493-4.593 5.004c-1.229.511-10.397 11.752-10.397 11.752s1.966 3.64 5.6 4.224c0 0 1.973-.78 2.706-2.523.732-1.743 6.509-6.658 6.509-6.658l.175-11.799z" fill="#3F3D56"></path><path opacity="0.1" d="M197.285 174.985c1.021.108 2.05.108 3.071 0 1.815-.173.437.928-3.071 0zM196.46 176.156s2.408 1.375 3.336.687c.929-.687-.895.664-3.336-.687zM210.505 185.831c-.082.362-.125.731-.13 1.102-1.86 1.689-4.097 1.169-5.496.551 0-1.033-.017-1.757-.017-1.757s6.285-2.765 5.643.104z" fill="#3F3D56"></path><path d="M221.65 125.943l-.069 1.27-.574 10.666s-.472 2.386-.276 6.977c.196 4.591-2.559 11.844-2.559 11.844s-1.33 4.915-1.744 7.164c-.413 2.249-1.696 2.938-1.696 2.938s.321 2.526-.596 3.396c-.917.87-.961 2.341-.961 2.341s-1.418 7.897-1.891 8.678c-.472.78-.413 4.912-.413 4.912-2.982 3.536-7.339.322-7.339.322l.045-11.064s1.24-10.191 2.157-11.615c.917-1.424.917-5.326.917-5.326l-.409-9.089s-.326-.965-.045-1.516-.784-2.06-.784-2.06c-2.569-3.122-2.935-10.146-2.191-11.525.745-1.379 2.975-6.885 2.975-6.885l3.072-1.793 5.545.166 6.836.199z" fill="#3F3D56"></path><path opacity="0.1" d="M208.603 180.046s.725 2.514 1.309 2.789c.583.274-1.309-2.789-1.309-2.789zM209.6 171.678s1.89 1.486 2.667 1.481c.778-.005-2.667-1.481-2.667-1.481z" fill="#3F3D56"></path><path d="M220.917 109.529v3.03l-1.998-.861-1.992-.861-4.334-4.269s-3.428-2.23-5.264-4.257c-1.049-1.159-1.578-2.254-.652-2.8382.446-.2939.849-.6481 1.198-1.0525.923-1.0878 1.725-2.2725 2.393-3.5334l.085-.1538c.893-1.6413 1.482-3.0414 1.482-3.0414s2.514.8064 4.132 1.9488c.13.0898.253.1845.371.2814.903.7403 1.35 1.5964.52 2.4526-.214.2219-.413.459-.593.7095-.134.1852-.257.3787-.366.5795-.05.0898-.097.1797-.142.2672-.557 1.1402-.749 2.4243-.55 3.6773l5.71 7.921z" fill="#ECB4B6"></path><path opacity="0.1" d="M216.858 96.3769c-.214.2219-.413.459-.593.7096-.134.1851-.257.3786-.366.5794-.05.0899-.097.1797-.142.2673-1.06-.0587-2.094-.3512-3.028-.8565-.935-.5054-1.746-1.2111-2.376-2.0668-.031-.0394-.059-.0796-.085-.1206l.085-.1537c.894-1.6414 1.482-3.0415 1.482-3.0415s2.514.8065 4.132 1.9488c.13.0899.253.1845.371.2815.903.7402 1.361 1.5964.52 2.4525z" fill="#3F3D56"></path><path d="M223.387 90.438c.001.9499-.185 1.8908-.547 2.7687-.363.8779-.895 1.6755-1.566 2.3472s-1.467 1.2042-2.345 1.567c-.877.3628-1.817.5487-2.765.5472h-.267c-1.383-.051-2.722-.4983-3.857-1.2887-1.136-.7903-2.021-1.8905-2.551-3.1698-.529-1.2792-.68-2.6837-.435-4.0465.245-1.3627.875-2.6265 1.817-3.6409.941-1.0145 2.154-1.737 3.494-2.0817 1.339-.3447 2.75-.2971 4.063.1373 1.314.4343 2.475 1.237 3.346 2.3126.871 1.0757 1.415 2.3791 1.568 3.7553.029.2631.044.5276.045.7923z" fill="#ECB4B6"></path><path opacity="0.1" d="M217.111 108.313s3.639 2.056 2.705.322l-4.747-7.024 5.39 6.932s3.44 4.73 1.56 7.987c0 0-.277 2.71.044 3.351.322.641-.092 7.486-.092 7.486s-1.283-1.183-1.97-.965c-.688.217-5.551.643-5.551.643l2.661-18.732z" fill="#3F3D56"></path><path opacity="0.1" d="M221.65 125.943l-.069 1.27c-.434-.317-1.042-.672-1.443-.537-.688.236-5.55.643-5.55.643l.224-1.58 6.838.204z" fill="#3F3D56"></path><path d="M217.248 108.313s3.639 2.056 2.705.322l-4.746-7.024 5.389 6.932s3.44 4.73 1.56 7.987c0 0-.275 2.71.044 3.351s-.089 7.486-.089 7.486-1.286-1.183-1.973-.965c-.688.217-5.55.643-5.55.643l2.66-18.732z" fill="#3F3D56"></path><path opacity="0.1" d="M219.193 111.835c-.213 2.207-1.12 4.832-1.12 4.832s-.641 6.52-1.468 8.45c-.827 1.93-.458 4.591-.916 9.503-.166 1.767-.735 2.982-1.503 3.803-1.262 1.348-3.072 1.63-4.489 1.547-.116 0-.237-.014-.338-.026-2.295-.237-4.49-11.293-4.49-11.293s-1.053-9.411-.642-10.698c.411-1.286-.411-8.63-.688-10.238-.175-1.017.352-2.682.759-3.763.236-.627.434-1.057.434-1.057s.78-2.479 2.063-3.7628c.177-.1819.389-.3264.622-.4247.234-.0983.485-.1485.739-.1477.604.0222 1.19.206 1.699.5322l.059.0402s8.348 8.5378 9.127 10.5128c.213.549.234 1.339.152 2.19z" fill="#3F3D56"></path><path d="M218.919 111.698c-.213 2.206-1.12 4.832-1.12 4.832s-.643 6.52-1.468 8.448c-.824 1.927-.472 4.59-.916 9.503-.166 1.769-.735 2.984-1.503 3.805-1.264 1.348-3.072 1.629-4.49 1.547l-.335-.026c-2.294-.237-4.489-11.294-4.489-11.294s-1.054-9.413-.641-10.697c.414-1.284-.413-8.63-.687-10.238-.175-1.017.349-2.682.758-3.765.236-.625.433-1.055.433-1.055s.779-2.479 2.065-3.7654c.176-.1812.388-.325.621-.4229.234-.0979.484-.1479.737-.1471.605.0224 1.192.2061 1.701.5322l.06.0378s8.347 8.5404 9.125 10.5124c.208.563.231 1.341.149 2.193z" fill="#FFDA41"></path><path opacity="0.1" d="M209.567 145.308s-1.891 1.686-2.548 1.618c-.656-.069 2.548-1.618 2.548-1.618zM210.07 146.926s-1.994.926-2.599 1.063c-.605.137 1.828-1.302 2.599-1.063zM217.787 121.582s2.958.033 3.405.962c.446.93-2.441-1.341-3.405-.962zM217.373 123.199s2.271.473 2.958 1.033c.688.56-2.958-1.033-2.958-1.033zM213.557 117.587s-.274 9.33-1.29 10.536c-1.016 1.207 1.29-10.536 1.29-10.536zM211.01 143.962s-1.89 8.228 1.912 8.751c3.801.523 2.629-9.366 2.629-9.366l-4.541.615z" fill="#3F3D56"></path><path d="M210.873 143.823s-1.89 8.23 1.909 8.75c3.8.521 2.633-9.365 2.633-9.365l-4.542.615z" fill="#ECB4B6"></path><path opacity="0.1" d="M214.124 109.278c-.196-4.945-7.109-5.967-8.723-1.289-.012.031-.021.062-.033.095-1.054 3.167-.596 11.187-.596 11.187s.137 5.385.643 7.175c.506 1.791 1.926 6.932 1.926 7.76 0 .828 1.318 3.995 1.874 4.224.555.23.836 2.02.971 2.342.134.321.55 4.493.55 4.493s5.182-.321 5.274-1.147c.092-.825-1.146-4.862-1.146-4.862s-.914-1.656-1.03-2.985c-.116-1.329-.851-1.928-.709-2.838.142-.911-.414-1.379-.414-1.975 0-.596-.411-2.204-.411-2.204s-.872-.688-.735-1.514c.138-.825-1.238-2.478-.871-3.074.366-.596.458-2.065.458-2.065s.458-6.622.78-8.403c.321-1.781 2.202-4.681 2.202-4.681s-.005-.092-.01-.239z" fill="#3F3D56"></path><path opacity="0.1" d="M213.919 138.286c-1.264 1.348-3.072 1.629-4.489 1.547-.164-.627-.405-1.396-.757-1.542-.555-.237-1.873-3.397-1.873-4.222 0-.825-1.418-5.97-1.926-7.76s-.643-7.175-.643-7.175-.472-8.02.589-11.194c0-.034.019-.064.03-.097 1.614-4.678 8.528-3.654 8.724 1.291v.236s-1.89 2.893-2.2 4.683c-.309 1.791-.782 8.401-.782 8.401s-.092 1.471-.458 2.067c-.367.596 1.009 2.249.871 3.075-.137.825.733 1.513.733 1.513s.413 1.606.413 2.205c0 .598.551 1.054.414 1.974-.137.92.598 1.514.709 2.839.104.748.321 1.476.645 2.159z" fill="#3F3D56"></path><path d="M213.848 109.141c-.196-4.945-7.107-5.969-8.721-1.291 0 .033-.024.064-.033.097-1.054 3.167-.596 11.186-.596 11.186s.137 5.386.641 7.176c.503 1.79 1.928 6.937 1.928 7.76 0 .823 1.316 3.992 1.873 4.222.558.229.837 2.022.972 2.341.134.319.548 4.494.548 4.494s5.184-.322 5.274-1.15c.089-.828-1.146-4.865-1.146-4.865s-.912-1.655-1.031-2.984c-.118-1.33-.85-1.928-.708-2.839.141-.91-.414-1.378-.414-1.974 0-.596-.413-2.205-.413-2.205s-.872-.688-.733-1.513c.139-.826-1.24-2.481-.872-3.075.369-.594.459-2.065.459-2.065s.458-6.622.779-8.403c.322-1.781 2.202-4.683 2.202-4.683s-.002-.082-.009-.229z" fill="#FFDA41"></path><path opacity="0.1" d="M205.335 121.856c.137-.137 2.752-3.03 3.577-1.996.825 1.033-3.577 1.996-3.577 1.996zM205.576 124.093c.101-.102 2.613-.206 3.232-1.618.619-1.412-3.232 1.618-3.232 1.618z" fill="#3F3D56"></path><g opacity="0.1" fill="#3F3D56"><path opacity="0.1" d="M202.714 98.7158c.063.0725.109.157.137.2484.052-.1576.066-.325.043-.4891-.024-.1641-.085-.3205-.18-.457-.122-.1419-.302-.2246-.413-.3736 0-.0119-.014-.0261-.024-.0403-.062.1123-.093.2393-.089.3675.005.1283.043.2531.113.361.111.1466.291.2318.413.3831zM206.214 89.7829c0-.2625.011-.5227 0-.7805-.05-.946-.222-1.8921-.263-2.8381-.054 1.1494.201 2.3651.263 3.5263v.0923z"></path></g><path d="M230.555 113.661l.142.099c-.124-.086-.209-.217-.236-.366-.027-.148.005-.301.09-.426l6.379-9.262c.043-.061.097-.114.159-.154.063-.04.133-.068.206-.082.073-.013.148-.012.221.004.073.016.142.046.203.088l-.139-.099c.099.067.183.154.249.255.065.1.11.213.132.331.022.118.021.239-.004.356-.025.117-.073.229-.141.328l-5.982 8.694c-.068.1-.156.185-.257.251-.101.067-.215.112-.334.134-.119.021-.241.019-.359-.007s-.23-.075-.329-.144z" fill="#3F3D56"></path><path d="M237.599 103.463l.152.105-7.018 10.198-.152-.105c-.09-.062-.151-.157-.171-.264-.02-.107.004-.218.066-.308l6.546-9.513c.03-.046.069-.085.114-.116.046-.03.097-.051.151-.062.053-.011.109-.01.162.001.054.011.105.033.15.064z" fill="#B2BBED"></path><path d="M236.863 104.89l-.029-.02c-.019-.013-.044-.008-.056.01l-.527.765c-.012.018-.008.043.011.056l.029.02c.018.013.043.008.056-.01l.526-.765c.013-.019.008-.044-.01-.056z" fill="#3F3D56"></path><path opacity="0.1" d="M224.294 89.5536c-.102-.4943-.506-.8561-.784-1.2771-.695-1.0478-.586-2.4337-.263-3.6493.119-.3317.17-.6841.149-1.0359-.046-.2223-.138-.4326-.27-.6174-.132-.1849-.301-.3403-.495-.4564-.853-.5605-1.947-.5676-2.904-.9224-1.392-.5156-2.651-1.7856-4.102-1.4781-.794.1679-1.404.7828-2.089 1.2156-.757.4778-1.628.7448-2.523.7734-.752.0236-1.51-.123-2.25 0-.133.0238-.263.0594-.39.1064-.629-.2143-1.289-.3198-1.954-.3122-.651-.015-1.293.1644-1.843.5156-.999.7095-1.266 2.0695-1.25 3.2922.017 1.2227.223 2.4833-.153 3.6469-.473 1.4498-1.777 2.5543-2.042 4.0538-.179 1.0193.156 2.0481.456 3.0391.86 2.8381 1.43 5.9882.289 8.7342-.291.695-.726 1.384-1.418 1.703l2.424-.144c.026.171.019.346-.023.514-.041.169-.115.327-.218.467s-.232.258-.38.348c-.149.089-.313.149-.485.175.612-.039 1.213-.177 1.78-.409.283-.119.533-.304.728-.54.196-.237.331-.517.394-.818.047-.329-.024-.672.068-.988.159-.547.709-.847 1.17-1.197 1.181-.923 1.744-2.476 1.789-3.978.045-1.5021-.352-2.9779-.778-4.4206-.425-1.4427-.881-2.8925-.945-4.3943-.027-.5492.024-1.0995.151-1.6343.088.1632.185.324.286.473.586.894 1.272 1.7431 1.631 2.7506.127.4776.297.9423.51 1.3883.251.4257.709.7781 1.203.7095.494-.0686.853-.6031 1.016-1.1045.163-.5014.236-1.0477.536-1.4758.577-.8088 1.73-.8821 2.722-.8514 2.091.0662 4.976.3831 6.616-1.2251.312-.3051.472-.771.945-.6575.435.1017.678.8112 1.144.9697.76.2625 1.724-.447 1.552-1.289z" fill="#3F3D56"></path><path d="M224.294 89.2863c-.102-.4943-.506-.8586-.784-1.2772-.695-1.0501-.586-2.436-.263-3.6493.119-.3316.17-.6841.149-1.0359-.046-.2223-.138-.4325-.27-.6174-.132-.1848-.301-.3402-.495-.4563-.853-.5606-1.947-.57-2.904-.9224-1.392-.5156-2.651-1.7856-4.102-1.4782-.794.1679-1.404.7829-2.089 1.2157-.758.4767-1.629.7436-2.523.7733-.752.0237-1.51-.1229-2.25 0-.133.0238-.263.0595-.39.1065-.629-.2143-1.289-.3199-1.954-.3122-.651-.0144-1.292.1642-1.843.5132-.999.7095-1.266 2.0718-1.25 3.2946.017 1.2227.223 2.4833-.153 3.6469-.473 1.4498-1.777 2.5543-2.042 4.0537-.179 1.0194.156 2.0482.456 3.0392.86 2.838 1.43 5.9885.289 8.7315-.291.698-.726 1.386-1.418 1.706l2.424-.145c.026.172.019.346-.023.515-.041.168-.116.326-.218.466-.103.139-.232.257-.381.347-.148.089-.312.148-.484.174.612-.037 1.213-.174 1.78-.407.283-.118.533-.303.728-.54.196-.236.331-.517.394-.817.047-.329-.024-.672.068-.989.159-.546.709-.847 1.17-1.197 1.181-.922 1.744-2.476 1.789-3.978.045-1.5015-.352-2.9796-.778-4.42-.425-1.4403-.881-2.8925-.945-4.3943-.027-.5492.024-1.0995.151-1.6342.088.1631.185.324.286.473.586.894 1.272 1.743 1.631 2.7505.126.477.297.941.51 1.386.251.4257.709.7805 1.203.7095.494-.0709.853-.6007 1.016-1.1021.163-.5014.236-1.0477.536-1.4758.577-.8089 1.73-.8822 2.722-.8514 2.091.0662 4.976.3831 6.616-1.2252.312-.3051.472-.771.945-.6574.435.1017.678.8112 1.144.9696.76.2626 1.724-.447 1.552-1.2889z" fill="#3F3D56"></path><g opacity="0.1" fill="#3F3D56"><path opacity="0.1" d="M203.333 84.9749v.473c0 .5108.043 1.0288.062 1.542.021-.6622-.038-1.341-.062-2.015zM202.506 101.06c.064-1.8923-.366-3.8435-.919-5.6765-.222-.6564-.38-1.3328-.472-2.0197-.102.946.203 1.892.472 2.8239.512 1.5783.821 3.2155.919 4.8723zM223.011 85.6938c.039-.4508.118-.8972.236-1.3339.119-.3317.17-.6841.149-1.0359-.01-.0619-.025-.1228-.045-.1822-.028.1396-.066.2768-.104.4139-.2.6939-.28 1.4171-.236 2.1381zM202.889 105.681l-1.465.085c-.236.368-.568.665-.959.86l2.287-.134c.138-.247.186-.533.137-.811zM224.23 89.0782c-.125.2747-.344.4958-.617.6236-.273.1279-.583.1541-.874.0741-.472-.1585-.709-.868-1.143-.9697-.473-.1135-.634.3548-.945.6599-1.638 1.6058-4.523 1.2889-6.616 1.2227-.993-.0307-2.146.0426-2.722.8514-.307.4281-.376.9768-.537 1.4782-.16.5014-.496 1.0217-1.016 1.1021-.519.0804-.945-.2767-1.202-.7095-.213-.4453-.383-.9093-.511-1.3859-.359-1.0076-1.044-1.859-1.63-2.753-.102-.1513-.199-.3122-.286-.473-.128.5356-.179 1.0867-.151 1.6366v.1159c.019-.3189.066-.6356.142-.946.087.1632.184.324.286.473.586.894 1.271 1.7431 1.63 2.7506.126.4769.297.9409.51 1.3859.251.4257.709.7805 1.203.7096.494-.071.853-.6008 1.016-1.1022.163-.5014.236-1.0477.536-1.4758.577-.8088 1.73-.8822 2.722-.8514 2.091.0662 4.976.3831 6.616-1.2251.312-.3051.473-.771.945-.6575.435.1017.678.8112 1.144.9697.763.2578 1.727-.4518 1.555-1.2937-.014-.0713-.032-.1416-.055-.2105zM205.923 103.231c-.449.35-1.011.65-1.17 1.197-.092.319-.021.66-.068.988-.063.301-.198.582-.393.819-.196.237-.446.423-.729.541-.224.103-.458.182-.697.237-.066.25-.203.475-.396.648-.192.173-.431.285-.687.324.612-.037 1.213-.174 1.78-.407.283-.118.533-.304.728-.54.196-.237.331-.517.394-.818.047-.328-.024-.671.068-.988.159-.547.709-.847 1.17-1.197 1.181-.922 1.744-2.476 1.789-3.978v-.6693c-.085 1.4573-.645 2.9493-1.789 3.8433z"></path></g><path d="M107.626 193.652h.054s-8.6762-23.551-11.1051-26.751c0 0-2.5448-1.488-2.429-4.002l-3.1213-14.99s.0473-.044.1253-.13l.0661-.073c.0237-.026.0496-.054.0756-.087.4167-.485.7657-1.023 1.0373-1.602.0165-.037.0354-.073.052-.111.116-.262.2131-.532.2906-.809.2182.076.4574.063.6663-.035v-.225s-.0307-.887-.0331-2.273v-1.255c.101-.36.1838-.725.2481-1.093l-.1275-.059c0-.019-.0001-.036.0118-.055l-.1064-.049c.0851-3.288.3686-7.488 1.1814-10.35.0284-.102.0567-.201.0875-.3.964-3.125.9853-6.939 1.2333-10.17.1949.404.3622.822.501 1.249.1226-.136.2643-.253.4205-.348l.9688 7.665v9.03s-1.6209 11.662 3.4688 9.491c5.089-2.171 1.389-10.17 1.389-10.17s0-4.458.695-6.745c.456-1.504.16-6.386-.095-9.529.487.088.787.156.787.156.113-.458.164-.93.151-1.402.104-5.27-6.4714-13.765-9.1532-17.005-.7676-1.158-1.8351-2.0846-3.0882-2.6821l-5.1438-2.462s-2.4219-.6031-3.367-2.4479c0-.0307-.0165-.0638-.0236-.0969.1063-.0473.2126-.097.3166-.1514.7827-.3733 1.4704-.92 2.0107-1.5988 1.0964-1.3765 1.6185-3.1006 2.1266-4.7798.5883-1.9725 1.1814-3.9899 1.1034-6.0475-.078-2.0576-.9451-4.1957-2.7196-5.2883-1.5098-.9319-3.6127-1.1092-4.5484-2.6016-.2528-.4021-.4064-.8798-.7443-1.2062.0027-.0689-.0198-.1365-.0633-.1901-.0435-.0535-.105-.0893-.173-.1008l-2.6227-.5061a.285395.285395 0 00-.2119.043c-.0623.0416-.1058.106-.1212.1793v.0355c-2.3142.0635-4.5862.6343-6.6561 1.6721-.7339.3534-1.4387.7646-2.1076 1.2298-.9451.667-1.8902 1.5468-2.0225 2.6915-.0686.57.0708 1.1541-.0473 1.7123-.3119 1.4947-2.3368 2.4668-2.0415 3.9639.1985 1.0169 1.3634 1.4545 2.4526 1.4568-.2016.7118-.3042 1.4479-.3048 2.1877.0095 1.8772.6663 3.6934 1.8592 5.1418 1.193 1.4484 2.849 2.44 4.6882 2.8073.7931 1.1021 1.4881 2.2717 2.0769 3.4955-1.3327 1.2512-4.1231 4.155-2.4125 5.132l-3.5442 8.69.345 8.961-1.5004 1.327.3285.406c-1.68 1.935-5.5739 6.166-8.4187 7.292-.4077.162-.8026.355-1.1814.577-.5217.326-1.1007.55-1.706.66-.2644.027-.5261.077-.782.149l-.6782-1.393c-.1182-.242-.327-.427-.5809-.516-.254-.088-.5326-.073-.7753.043l-.4159.198-.99.474-.4111.196-.3143.149c-.1194.056-.2265.136-.315.234-.0886.098-.1568.213-.2007.338-.0439.124-.0628.257-.0553.389.0074.132.0409.261.0985.38l.8222 1.686c-1.1696 1.019-1.7414 2.237-.1488 3.368.6182.446 1.3646.678 2.1265.662l.5009 1.024c.1178.242.3261.427.5797.516.2536.088.5318.073.7742-.043l.7254-.345 1.4177-.669c.1195-.056.2268-.136.3155-.233.0887-.098.157-.213.201-.338.0439-.124.0627-.256.0552-.388-.0076-.132-.0413-.261-.0992-.38l-.4111-.844c.9185-.705 1.7611-1.504 2.514-2.384 0 0 2.11-1.308 3.3528-1.599.8247-.194 3.7191-2.07 5.5006-3.257l.508 13.202c-.1139.171-.2454.329-.3922.473l.3993-.279v.097c-.059.066-.1157.128-.1725.182l.1725-.123v.159c-.055.068-.115.132-.1795.191l.1819-.128.052 1.372.8719-1.419.0543 1.419.2032-.333c-2.4431 4.103-5.6258 10.143-7.3247 16.224 0 0-2.6582 4.572-2.3132 9.259l-4.891 23.202.0945.035c-1.5854 1.128-4.917 3.198-8.1894 3.281 0 0-7.8658-.237-5.6708 1.485 2.1951 1.722 21.7378 4.231 21.7378 4.231l.7514-5.78.1748.064s0-.034-.0118-.09l.2363.09s-.4726-2.86 1.2712-4.459c1.7437-1.598 5.7841-17.835 5.4344-20.339 0 0 3.1048-7.67 6.9916-13.786l4.5744 11.615 5.0894 8.689s6.7695 14.876 6.5521 18.192c-1.4177 1.717-3.9648 4.406-5.8574 4.328 0 0-7.75 1.488-2.429 2.86 5.3211 1.371 20.9346-3.785 20.9346-3.785l-1.538-5.021zm-33.8853-53.193l.0473-.026c-.2363.367-.4986.776-.7774 1.223l.7301-1.197z" fill="url(#paint1_linear)"></path><path d="M70.3832 142.212c-.1914.135-.2953.213-.2953.213.1084-.056.2079-.128.2953-.213z" fill="url(#paint2_linear)"></path><path d="M70.6148 142.439l-.2953.215c.1084-.057.2079-.129.2953-.215z" fill="url(#paint3_linear)"></path><path d="M70.6148 142.212c-.1914.135-.2953.213-.2953.213.1084-.056.2079-.128.2953-.213z" fill="url(#paint4_linear)"></path><path d="M97.0805 193.983s-4.0593 5.757-6.7647 5.643c0 0-7.561 1.467-2.3628 2.822s20.412-3.725 20.412-3.725l-1.81-5.913-9.4745 1.173z" fill="#3F3D56"></path><path d="M78.9247 154.026l5.7487 14.786 4.9619 8.578s6.8238 15.182 6.3795 18.117l10.8692-1.75s-8.4567-23.252-10.8243-26.411c0 0-2.4809-1.469-2.3628-3.952l-3.0433-14.775s2.9606-2.859 1.3067-6.442c-.0879-.191-.1857-.376-.293-.556-2.2541-3.836-10.824-1.694-10.824-1.694l-1.9186 14.099z" fill="#3F3D56"></path><path opacity="0.03" d="M78.9247 154.026l5.7487 14.786 4.9619 8.578s6.8238 15.182 6.3795 18.117l10.8692-1.75s-8.4567-23.252-10.8243-26.411c0 0-2.4809-1.469-2.3628-3.952l-3.0433-14.775s2.9606-2.859 1.3067-6.442c-.0879-.191-.1857-.376-.293-.556-2.2541-3.836-10.824-1.694-10.824-1.694l-1.9186 14.099z" fill="#3F3D56"></path><path opacity="0.1" d="M96.0669 167.346s-2.4809-1.469-2.3628-3.952l-3.0504-14.775s2.9606-2.859 1.3067-6.442c-.088-.191-.1858-.376-.293-.556-1.094-1.862-3.6718-2.316-6.0393-2.29 2.2706.022 4.6594.518 5.7014 2.29.1074.179.2045.365.2906.556 1.654 3.583-1.3043 6.442-1.3043 6.442l3.0433 14.786c-.111 2.484 2.3628 3.953 2.3628 3.953 2.3628 3.159 10.8241 26.41 10.8241 26.41l-10.5311 1.68v.054l10.8691-1.75s-8.4496-23.247-10.8171-26.406z" fill="#3F3D56"></path><path d="M58.9662 191.5s-4.5106 3.836-8.9078 3.95c0 0-7.6673-.237-5.5266 1.469 2.1407 1.705 21.2015 4.174 21.2015 4.174l.8482-6.591-7.6153-3.002z" fill="#3F3D56"></path><path opacity="0.1" d="M75.5436 139.014s-7.4428 10.497-10.3751 21.106c0 0-2.599 4.515-2.2541 9.144l-4.7374 22.913 8.6833 3.271s-.4513-2.822 1.2405-4.402c1.6917-1.58 5.6376-17.608 5.2998-20.091 0 0 5.4131-13.545 10.8263-18.85 5.4132-5.305 8.1044-6.53 8.9007-11.116 0 .007-12.7355-6.151-17.584-1.975z" fill="#3F3D56"></path><path d="M75.3167 139.014s-7.4428 10.497-10.3727 21.106c0 0-2.5991 4.515-2.2565 9.144l-4.7256 22.913 8.6715 3.271s-.4489-2.822 1.2405-4.402 5.64-17.608 5.2997-20.091c0 0 5.4132-13.545 10.8264-18.85 5.4132-5.305 8.1068-6.53 8.9031-11.116 0 .007-12.7379-6.151-17.5864-1.975z" fill="#3F3D56"></path><path opacity="0.1" d="M80.1251 137.451c5.5904.066 12.5512 3.434 12.5512 3.434-.7962 4.579-3.4898 5.804-8.9007 11.116-5.4108 5.312-10.8263 18.85-10.8263 18.85.3379 2.483-3.608 18.511-5.2998 20.091-1.472 1.376-1.3208 3.692-1.257 4.269l.3544.132s-.4513-2.821 1.2405-4.401c1.6918-1.58 5.6376-17.608 5.2998-20.091 0 0 5.4131-13.545 10.8263-18.85 5.4132-5.305 8.1068-6.53 8.9007-11.116 0 0-7.2467-3.505-12.8891-3.434z" fill="#3F3D56"></path><path d="M69.7878 122.646s-5.3825 6.709-9.0165 8.166c-.3993.161-.7863.351-1.1578.568-.5047.321-1.0661.543-1.6539.653-.4351.041-.8605.152-1.2594.331-1.8902.87-6.2449 3.226-3.3694 5.295 3.608 2.602 8.4565-3.387 8.4565-3.387s2.058-1.291 3.2701-1.579c1.2122-.289 6.7647-4.177 6.7647-4.177l-2.0343-5.87z" fill="#ECB4B6"></path><path d="M70.8062 121.293l-2.1431 1.918 3.1567 3.95-1.0136-5.868z" fill="#0B3D91"></path><path opacity="0.1" d="M70.8062 121.293l-2.1431 1.918 3.1567 3.95-1.0136-5.868z" fill="#3F3D56"></path><path d="M76.2359 98.8293s-5.132 4.4037-2.9818 5.6457l-3.4663 8.578 1.1933 31.377 4.8933-8.126-3.3433-17.608s-.9452-10.496 1.791-12.98l2.625-5.203-.7112-1.6837z" fill="#0B3D91"></path><path opacity="0.1" d="M76.914 97.2566s-5.132 4.4034-2.9842 5.6454l-3.4615 8.585 1.1932 31.378 4.8933-8.127-3.341-17.615s-.9451-10.496 1.7887-12.979l2.6274-5.2035-.7159-1.6839z" fill="#3F3D56"></path><path d="M72.2734 94.2034s4.1728 5.0778 4.0593 8.0126c-.1134 2.935 7.8942-5.0775 7.8942-5.0775s-3.0457-3.725-2.2565-7.677c.7892-3.9521-9.697 4.7419-9.697 4.7419zM96.0669 119.713l1.1294 9.039v8.917s-1.5783 11.513 3.3837 9.368c4.962-2.145 1.342-10.054 1.342-10.054s0-4.404.678-6.66c.678-2.256-.338-12.192-.338-12.192l-6.1951 1.582z" fill="#ECB4B6"></path><path d="M80.6165 98.3801s-3.0315 2.9379-4.6217 1.9179l-2.1643 5.385c-1.3229 3.294-1.9233 6.834-1.7603 10.381l.7656 20.354 3.3835-.452 1.1294-19.301 1.6918-11.738 1.576-6.5469z" fill="#F2F2F2"></path><path opacity="0.1" d="M83.1541 95.2747s-4.0026 2.7647-5.1296 5.1373c0 0-.1134 2.601-1.016 3.725-.9026 1.123-1.8028 6.771-2.0297 13.544-.2268 6.774-1.2404 15.801-1.2404 15.801s-1.6918 8.806-3.4946 9.697c0 0 8.343-6.319 12.4023-4.174 4.0593 2.145 8.6833 7.332 10.0372 6.546 0 0-.326-9.893 1.1531-15.169.0283-.099.0567-.199.0874-.296 1.5784-5.191.5647-12.298 2.3628-15.349 0 0 0-5.518-1.0396-9.638-.2693-1.052-.7652-2.032-1.4529-2.872-.6878-.84-1.5508-1.519-2.5284-1.99l-5.0092-2.4223s-2.6511-.3949-3.1024-2.54z" fill="#3F3D56"></path><path opacity="0.1" d="M83.1542 95.2747s-3.7805 2.9918-4.9052 5.3613c0 0-.1134 2.602-1.0137 3.725-.9002 1.124-1.8052 6.774-2.0296 13.545-.2245 6.771-1.2405 15.813-1.2405 15.813s-1.6918 8.803-3.4969 9.697c0 0 8.3454-6.322 12.4047-4.177 4.0593 2.145 8.6833 7.332 10.0348 6.547 0 0-.3237-9.891 1.1554-15.168.0284-.101.0567-.198.0851-.295 1.5807-5.203.5647-12.299 2.3628-15.352 0 0 0-5.518-1.042-9.635-.2684-1.053-.7637-2.034-1.4511-2.874-.6874-.84-1.5502-1.52-2.5279-1.991l-5.0162-2.4316s-2.8684-.6196-3.3197-2.7647z" fill="#3F3D56"></path><path d="M83.0974 95.218s-3.7214 2.8216-4.8484 5.203c0 0-.1134 2.602-1.0137 3.725-.9002 1.124-1.8052 6.771-2.0296 13.545-.2245 6.774-1.2405 15.792-1.2405 15.792s-1.6918 8.805-3.4969 9.696c0 0 8.3454-6.319 12.4047-4.174 4.0593 2.145 8.6833 7.332 10.0348 6.547 0 0-.3237-9.894 1.1554-15.17l.0851-.296c1.5807-5.191.5647-12.298 2.3628-15.349 0 0 0-5.518-1.042-9.638-.2684-1.052-.7638-2.032-1.4512-2.872-.6873-.84-1.5502-1.52-2.5278-1.99l-5.0162-2.4316s-2.5306-.6125-3.3765-2.5874z" fill="#0B3D91"></path><path opacity="0.1" d="M93.4158 101.821s11.4452 13.037 9.8672 19.245c0 0-5.8646-1.353-7.4429.452 0 0-1.2405-4.177-4.9619-6.547s-7.1499-17.5512 2.5376-13.15z" fill="#3F3D56"></path><path d="M93.4158 101.597s11.4452 13.036 9.8672 19.244c0 0-5.8646-1.355-7.4429.452 0 0-1.2405-4.177-4.9619-6.547-3.7214-2.369-7.1499-17.5532 2.5376-13.149z" fill="#0B3D91"></path><path opacity="0.1" d="M82.2516 92.0014c-.1772-.9105-.0283-.9791.1702-1.9748.7891-3.9497-9.6875 4.7301-9.6875 4.7301s.5836.7096 1.3066 1.7549c.534.1105 1.0779.1659 1.6232.1656 2.8661.0094 5.1746-2.4124 6.5875-4.6758z" fill="#3F3D56"></path><path d="M75.2033 96.119c4.4211 0 8.0052-3.5875 8.0052-8.0129 0-4.4253-3.5841-8.0128-8.0052-8.0128-4.4211 0-8.0052 3.5875-8.0052 8.0128 0 4.4254 3.5841 8.0129 8.0052 8.0129z" fill="#ECB4B6"></path><path opacity="0.1" d="M68.0109 85.9136c-1.1814.1585-2.6817-.2365-2.9086-1.4049-.2859-1.4758 1.6871-2.4384 1.9919-3.9118.1157-.5534-.0213-1.1305.0449-1.691.1323-1.1305 1.0443-2.0009 1.9729-2.656 2.9415-2.0662 6.52-3.0208 10.0986-2.6938.4466.0048.8816.1423 1.25.3949.3898.3217.5387.8396.8033 1.2677.9144 1.4782 2.963 1.6556 4.435 2.5732 1.7225 1.0761 2.5731 3.1881 2.6511 5.2197.0779 2.0316-.5009 4.0207-1.0751 5.9719-.4867 1.6555-.9971 3.3584-2.0651 4.7159-1.068 1.3576-2.8354 2.3083-4.52 1.8921.7702-.5558.2126-1.8424-.6215-2.2942-.834-.4517-1.8666-.5297-2.5778-1.1517-.7112-.6221-.9262-1.6438-1.1601-2.5709-.293-1.1825-.7089-2.365-1.5689-3.2141-1.6658-1.6697-4.6949-.7237-6.7506-.447z" fill="#3F3D56"></path><path d="M68.2378 85.8002c-1.1814.1609-2.6818-.2365-2.911-1.4025-.2859-1.4781 1.6871-2.4384 1.9942-3.9142.1134-.5534-.0236-1.1281.0425-1.691.1324-1.1305 1.0468-1.9985 1.9754-2.656 2.941-2.0652 6.5184-3.0197 10.0962-2.6938.4468.0057.8818.144 1.2499.3973.3899.3193.5411.8373.8058 1.2654.912 1.4781 2.9629 1.6555 4.4349 2.5732 1.7202 1.0761 2.5731 3.1904 2.6487 5.2197.0757 2.0292-.5009 4.0206-1.0727 5.9718-.4891 1.6555-.9971 3.3608-2.0674 4.7183-1.0704 1.3576-2.8354 2.306-4.5177 1.8921.7679-.5534.2103-1.8424-.6214-2.2941-.8317-.4518-1.8666-.5275-2.5802-1.1518-.7136-.6244-.9262-1.6438-1.1578-2.5709-.293-1.1707-.7088-2.3651-1.5689-3.2117-1.6752-1.6745-4.6972-.7285-6.7505-.4518z" fill="#3F3D56"></path><path d="M80.0376 77.6668l.7253-3.7179c.0069-.0357.0066-.0725-.0007-.1081-.0073-.0356-.0216-.0694-.042-.0995-.0204-.0301-.0466-.0559-.0769-.0759-.0304-.0199-.0644-.0337-.1001-.0405l-2.5566-.4991c-.0355-.0072-.0721-.0073-.1077-.0002-.0356.0071-.0694.0211-.0995.0414a.273693.273693 0 00-.0759.0765.27517.27517 0 00-.0406.0999l-.7253 3.7155-2.4786 9.1765 4.5436.8917 1.035-9.4603z" fill="#fff"></path><g opacity="0.1" fill="#3F3D56"><path opacity="0.1" d="M67.2336 80.7792c.1666-.2534.2866-.5345.3545-.8302.1134-.5534-.0237-1.1305.0425-1.691.0248-.1997.0732-.3958.1441-.5842-.2185.3377-.3589.7198-.4111 1.1187-.0662.5629.0709 1.1376-.0449 1.691-.0197.1009-.0482.1998-.0851.2957zM85.7013 93.0516c-1.0514 1.3386-2.7881 2.2752-4.4421 1.9133-.0453.2102-.1675.3958-.3426.5204 1.6776.4091 3.4497-.5393 4.5177-1.8921.4011-.5185.739-1.083 1.0066-1.6816-.2116.4016-.4591.7832-.7396 1.14zM81.2711 94.8726c.6308-.5865.0874-1.7833-.7089-2.2161-.834-.4517-1.8666-.5297-2.5801-1.1518-.7136-.622-.9263-1.6437-1.1578-2.5732-.293-1.1707-.7089-2.365-1.5689-3.2117-1.6752-1.6769-4.6973-.7308-6.7505-.4541-1.1815.1584-2.6818-.2365-2.9087-1.4049-.0536-.276-.0307-.5615.0662-.8254a1.82914 1.82914 0 00-.3033.6477c-.0576.2337-.0685.4766-.0322.7146.2363 1.1683 1.7319 1.5633 2.911 1.4025 2.0532-.2767 5.0753-1.2228 6.7505.4564.8506.8538 1.2759 2.0411 1.5689 3.2118.2363.9271.4371 1.9417 1.1578 2.5708.7206.6292 1.7461.7096 2.5801 1.1518.5978.3217 1.0491 1.0785.9759 1.6816z"></path></g><path opacity="0.1" d="M76.2761 92.226c2.1792 0 3.9459-1.7683 3.9459-3.9497 0-2.1813-1.7667-3.9496-3.9459-3.9496-2.1793 0-3.9459 1.7683-3.9459 3.9496 0 2.1814 1.7666 3.9497 3.9459 3.9497z" fill="#3F3D56"></path><path d="M76.2761 92.3395c2.1792 0 3.9459-1.7683 3.9459-3.9496 0-2.1814-1.7667-3.9497-3.9459-3.9497-2.1793 0-3.9459 1.7683-3.9459 3.9497 0 2.1813 1.7666 3.9496 3.9459 3.9496z" fill="#fff"></path><path d="M76.2761 90.9773c1.4276 0 2.5849-1.1584 2.5849-2.5874s-1.1573-2.5874-2.5849-2.5874c-1.4276 0-2.5849 1.1584-2.5849 2.5874s1.1573 2.5874 2.5849 2.5874z" fill="#3F3D56"></path><path d="M76.2761 89.18c.4359 0 .7892-.3537.7892-.79 0-.4362-.3533-.7899-.7892-.7899-.4358 0-.7892.3537-.7892.7899 0 .4363.3534.79.7892.79z" fill="#fff"></path><path opacity="0.05" d="M80.1036 77.3366l-3.0981-.6056-.0217.1113 3.0981.6056.0217-.1113z" fill="#3F3D56"></path><path d="M54.3387 130.767l-.7556.365c-.7452.359-1.0581 1.256-.6988 2.002l2.7634 5.737c.3593.746 1.2547 1.059 2 .699l.7555-.364c.7453-.36 1.0581-1.256.6988-2.002l-2.7634-5.737c-.3593-.746-1.2547-1.06-1.9999-.7z" fill="#CBDAE3"></path><path d="M55.3795 130.265l-2.8371 1.369c-.1705.082-.242.287-.1598.458l3.7669 7.821c.0822.17.287.242.4574.16l2.8371-1.37c.1704-.082.242-.287.1598-.457l-3.7669-7.821c-.0822-.171-.287-.242-.4574-.16z" fill="#535461"></path><path d="M55.742 130.091l-2.8562 1.378c-.1928.093-.2737.325-.1808.518l3.728 7.74c.0929.193.3245.274.5173.181l2.8563-1.379c.1927-.093.2737-.325.1807-.518l-3.7279-7.739c-.093-.193-.3246-.274-.5174-.181z" fill="#0B3D91"></path><path d="M55.9515 130.741l-2.686 1.297 3.0856 6.406 2.686-1.297-3.0856-6.406zM58.2842 138.89c.168-.081.2166-.329.1084-.553-.1082-.225-.3321-.341-.5002-.26-.168.081-.2166.329-.1084.553.1082.225.3321.341.5002.26z" fill="#F2F2F2"></path><path opacity="0.1" d="M78.861 131.801c1.5865.018 3.1562.327 4.6311.913 2.3628.96 4.865 0 4.865 0s-7.1262-2.07-9.4961-.913z" fill="#3F3D56"></path><path d="M160.196 174.453s1.469 1.922-.678 4.827c-2.148 2.904-3.918 5.354-3.202 7.164 0 0 3.239-5.393 5.876-5.468 2.637-.076.905-3.281-1.996-6.523z" fill="#0B3D91"></path><path opacity="0.1" d="M160.196 174.453c.128.185.229.388.3.603 2.573 3.025 3.946 5.849 1.472 5.912-2.304.067-5.068 4.191-5.73 5.232.021.08.047.159.078.236 0 0 3.239-5.392 5.876-5.468 2.637-.075.905-3.273-1.996-6.515z" fill="#3F3D56"></path><path d="M162.927 176.903c0 .679-.075 1.227-.168 1.227-.092 0-.17-.548-.17-1.227s.095-.357.189-.357c.095 0 .149-.319.149.357z" fill="#FFD037"></path><path d="M163.865 177.709c-.593.324-1.11.52-1.155.437-.045-.083.399-.411.992-.735s.362-.087.407 0c.044.088.349-.023-.244.298z" fill="#FFD037"></path><path d="M152.436 174.453s-1.469 1.922.678 4.827c2.148 2.904 3.918 5.354 3.202 7.164 0 0-3.239-5.393-5.876-5.468-2.637-.076-.905-3.281 1.996-6.523z" fill="#0B3D91"></path><path opacity="0.1" d="M152.436 174.453c-.128.185-.229.388-.3.603-2.573 3.025-3.943 5.849-1.469 5.912 2.303.067 5.065 4.191 5.727 5.232-.021.08-.047.159-.078.236 0 0-3.239-5.392-5.876-5.468-2.637-.075-.905-3.273 1.996-6.515z" fill="#3F3D56"></path><path d="M149.705 176.903c0 .679.075 1.227.17 1.227.094 0 .17-.548.17-1.227s-.097-.357-.189-.357-.151-.319-.151.357z" fill="#FFD037"></path><path d="M148.767 177.709c.595.324 1.113.52 1.158.437.045-.083-.402-.411-.995-.735s-.359-.087-.404 0c-.045.088-.352-.023.241.298z" fill="#FFD037"></path><path d="M150.173 186.193s4.109-.128 5.347-1.01c1.238-.882 6.318-1.935 6.616-.52.297 1.414 6.171 7.038 1.535 7.076-4.635.038-10.776-.724-12.012-1.478-1.236-.755-1.486-4.068-1.486-4.068z" fill="#A8A8A8"></path><path opacity="0.2" d="M163.764 191.245c-4.639.038-10.777-.722-12.013-1.476-.945-.572-1.316-2.632-1.441-3.581h-.137s.26 3.311 1.495 4.068c1.236.757 7.375 1.516 12.013 1.478 1.337-.012 1.8-.487 1.774-1.194-.184.43-.697.698-1.691.705z" fill="#3F3D56"></path><path d="M142.253 189.211c.34-.282.587-.659.709-1.083.092-.429-.093-.947-.501-1.1-.473-.178-.946.142-1.324.473-.378.331-.801.69-1.287.622.251-.228.438-.516.544-.838.106-.322.127-.665.061-.997-.022-.138-.08-.267-.168-.374-.255-.272-.709-.154-1.023.061-.971.684-1.243 2.004-1.248 3.193-.099-.428-.016-.875-.019-1.315-.002-.44-.123-.927-.494-1.163-.23-.126-.489-.187-.751-.178-.437-.016-.924.026-1.221.348-.371.397-.275 1.064.047 1.499.321.435.813.71 1.264 1.015.363.215.671.51.902.863.029.048.052.1.069.154h2.738c.619-.314 1.191-.711 1.702-1.18z" fill="#0B3D91"></path><path d="M123.69 187.676s-2.627-8.924.492-15.491c1.323-2.748 1.72-5.851 1.132-8.843-.291-1.419-.709-2.808-1.25-4.151" stroke="#535461" stroke-width="2" stroke-miterlimit="10"></path><path d="M126.023 155.04c0 1.093-1.981 4.257-1.981 4.257s-1.977-3.171-1.977-4.257c.018-.513.234-1 .603-1.357s.862-.556 1.376-.556c.513 0 1.006.199 1.375.556.37.357.586.844.604 1.357zM129.281 161.097c-.596.92-3.977 2.505-3.977 2.505s.062-3.739.655-4.657c.285-.441.733-.751 1.246-.861.514-.11 1.049-.011 1.49.274.44.286.75.735.859 1.248.11.514.012 1.05-.273 1.491zM129.137 171.449c-.976.494-4.695.154-4.695.154s1.937-3.198 2.913-3.69c.232-.117.485-.187.744-.206.259-.02.519.012.766.094.247.081.475.21.672.38.197.17.358.376.475.609.117.232.187.485.207.744.019.259-.013.52-.094.767-.082.247-.211.475-.38.672-.17.197-.376.359-.608.476zM127.268 179.258c-.879.651-4.603.946-4.603.946s1.37-3.479 2.249-4.129c.422-.314.952-.447 1.472-.37.52.077.988.358 1.301.78.313.423.446.953.369 1.473-.076.521-.357.989-.779 1.303l-.009-.003zM121.15 163.815c.783.761 4.435 1.551 4.435 1.551s-.895-3.63-1.677-4.392c-.186-.185-.406-.331-.648-.43-.242-.099-.502-.149-.763-.146-.262.002-.521.056-.761.159-.241.102-.459.252-.641.44-.183.188-.326.41-.422.653-.096.244-.143.504-.138.766.005.262.062.52.168.76.106.24.258.456.447.636v.003zM119.078 172.979c.976.494 4.695.154 4.695.154s-1.937-3.198-2.913-3.69c-.233-.117-.486-.187-.746-.206-.26-.019-.521.014-.768.095-.247.082-.476.212-.673.383-.197.17-.359.378-.476.611-.117.233-.187.486-.206.746-.019.26.013.521.095.769.082.247.212.476.382.674.17.197.377.359.61.476v-.012zM118.284 182.151c.879.65 4.603.946 4.603.946s-1.37-3.479-2.249-4.129c-.209-.156-.446-.268-.699-.332-.252-.063-.514-.076-.772-.038-.257.038-.504.126-.728.26-.223.133-.418.31-.573.519-.155.209-.267.446-.331.699-.063.252-.076.515-.038.773.038.257.126.505.259.728.134.224.31.419.519.574h.009z" fill="#0B3D91"></path><path d="M126.023 155.04c0 1.093-1.981 4.257-1.981 4.257s-1.977-3.171-1.977-4.257c.018-.513.234-1 .603-1.357s.862-.556 1.376-.556c.513 0 1.006.199 1.375.556.37.357.586.844.604 1.357zM129.281 161.097c-.596.92-3.977 2.505-3.977 2.505s.062-3.739.655-4.657c.285-.441.733-.751 1.246-.861.514-.11 1.049-.011 1.49.274.44.286.75.735.859 1.248.11.514.012 1.05-.273 1.491zM129.137 171.449c-.976.494-4.695.154-4.695.154s1.937-3.198 2.913-3.69c.232-.117.485-.187.744-.206.259-.02.519.012.766.094.247.081.475.21.672.38.197.17.358.376.475.609.117.232.187.485.207.744.019.259-.013.52-.094.767-.082.247-.211.475-.38.672-.17.197-.376.359-.608.476zM127.268 179.258c-.879.651-4.603.946-4.603.946s1.37-3.479 2.249-4.129c.422-.314.952-.447 1.472-.37.52.077.988.358 1.301.78.313.423.446.953.369 1.473-.076.521-.357.989-.779 1.303l-.009-.003zM121.15 163.815c.783.761 4.435 1.551 4.435 1.551s-.895-3.63-1.677-4.392c-.186-.185-.406-.331-.648-.43-.242-.099-.502-.149-.763-.146-.262.002-.521.056-.761.159-.241.102-.459.252-.641.44-.183.188-.326.41-.422.653-.096.244-.143.504-.138.766.005.262.062.52.168.76.106.24.258.456.447.636v.003zM119.078 172.979c.976.494 4.695.154 4.695.154s-1.937-3.198-2.913-3.69c-.233-.117-.486-.187-.746-.206-.26-.019-.521.014-.768.095-.247.082-.476.212-.673.383-.197.17-.359.378-.476.611-.117.233-.187.486-.206.746-.019.26.013.521.095.769.082.247.212.476.382.674.17.197.377.359.61.476v-.012zM118.284 182.151c.879.65 4.603.946 4.603.946s-1.37-3.479-2.249-4.129c-.209-.156-.446-.268-.699-.332-.252-.063-.514-.076-.772-.038-.257.038-.504.126-.728.26-.223.133-.418.31-.573.519-.155.209-.267.446-.331.699-.063.252-.076.515-.038.773.038.257.126.505.259.728.134.224.31.419.519.574h.009z" fill="#0B3D91"></path><path d="M117.483 187.113s3.197-.636 4.05-1.483c.853-.847 4.69-2.33 5.116-1.272.425 1.057 5.756 4.661 2.126 5.297-3.629.637-8.525.847-9.59.424-1.066-.424-1.702-2.966-1.702-2.966z" fill="#A8A8A8"></path><path opacity="0.2" d="M128.782 189.261c-3.624.636-8.527.846-9.593.423-.812-.322-1.375-1.873-1.599-2.602l-.107.024s.641 2.542 1.706 2.966c1.066.423 5.969.21 9.593-.424 1.045-.184 1.345-.615 1.231-1.161-.089.364-.446.636-1.231.774z" fill="#3F3D56"></path><defs><linearGradient class="paint0_linear" x1="210.493" y1="201.093" x2="210.493" y2="77.6737" gradientUnits="userSpaceOnUse"><stop offset="0" stop-color="gray" stop-opacity="0.25"></stop><stop offset="0.54" stop-color="gray" stop-opacity="0.12"></stop><stop offset="1" stop-color="gray" stop-opacity="0.1"></stop></linearGradient><linearGradient class="paint1_linear" x1="14002" y1="78305.1" x2="32351.2" y2="78305.1" gradientUnits="userSpaceOnUse"><stop offset="0" stop-color="gray" stop-opacity="0.25"></stop><stop offset="0.54" stop-color="gray" stop-opacity="0.12"></stop><stop offset="1" stop-color="gray" stop-opacity="0.1"></stop></linearGradient><linearGradient class="paint2_linear" x1="166.149" y1="273.742" x2="166.518" y2="273.742" gradientUnits="userSpaceOnUse"><stop offset="0" stop-color="gray" stop-opacity="0.25"></stop><stop offset="0.54" stop-color="gray" stop-opacity="0.12"></stop><stop offset="1" stop-color="gray" stop-opacity="0.1"></stop></linearGradient><linearGradient class="paint3_linear" x1="166.68" y1="275.63" x2="167.049" y2="275.63" gradientUnits="userSpaceOnUse"><stop offset="0" stop-color="gray" stop-opacity="0.25"></stop><stop offset="0.54" stop-color="gray" stop-opacity="0.12"></stop><stop offset="1" stop-color="gray" stop-opacity="0.1"></stop></linearGradient><linearGradient class="paint4_linear" x1="166.68" y1="273.742" x2="167.049" y2="273.742" gradientUnits="userSpaceOnUse"><stop offset="0" stop-color="gray" stop-opacity="0.25"></stop><stop offset="0.54" stop-color="gray" stop-opacity="0.12"></stop><stop offset="1" stop-color="gray" stop-opacity="0.1"></stop></linearGradient></defs></svg>