<svg viewBox="0 0 475 480" fill="none" xmlns="http://www.w3.org/2000/svg" class="Logo"><g><path d="M364.807 112.213L363.977 100.917L352.657 101.164C294.657 102.451 243.618 121.914 204.516 155.953L241.036 158.308C269.784 139.485 303.91 128.123 341.651 125.485C342.614 163.319 334.552 198.382 318.554 228.8L324.37 264.943C354.526 222.768 369.041 170.092 364.807 112.213Z" fill="#0B3D91"></path><path d="M314.357 278.384L309.102 245.416L297.767 174.52L226.139 169.974L192.832 167.875L108.033 162.501L140.249 191.796L171.023 193.748C168.338 197.445 165.771 201.249 163.32 205.159C153.765 220.332 145.932 236.523 139.966 253.432L126.377 291.697L126.509 291.818C135.36 295.076 150.404 305.51 165.915 319.615C181.427 333.721 193.248 347.717 197.324 356.213L197.449 356.327L234.258 339.152C250.515 331.602 265.882 322.261 280.072 311.304C283.724 308.489 287.265 305.571 290.696 302.549L295.563 333.008L327.779 362.304L314.357 278.384ZM275.687 283.987C260.788 297.243 243.572 308.554 224.219 317.602L201.784 328.089L154.077 284.708L162.359 261.393C169.525 241.248 179.142 223.041 190.917 206.944C193.779 203.02 196.742 199.225 199.892 195.586L274.353 200.286L286.121 273.985C282.804 277.462 279.31 280.774 275.687 283.987Z" fill="#0B3D91"></path><path d="M111.78 378.445C111.78 378.445 132.366 318.622 138.764 318.349C146.386 318.025 153.856 320.741 159.529 325.9C165.203 331.059 168.616 338.239 169.018 345.861C169.354 352.257 111.78 378.445 111.78 378.445Z" fill="#0B3D91"></path><path d="M250.858 222.424L241.24 213.678L232.497 223.299L242.115 232.045L250.858 222.424Z" fill="#0B3D91"></path><path d="M238.752 235.745L229.135 226.999L220.392 236.62L230.01 245.366L238.752 235.745Z" fill="#0B3D91"></path><path d="M263.435 233.861L253.817 225.115L245.074 234.736L254.692 243.482L263.435 233.861Z" fill="#0B3D91"></path><path d="M251.33 247.182L241.712 238.436L232.969 248.057L242.587 256.803L251.33 247.182Z" fill="#0B3D91"></path></g><defs><rect width="300" height="375" fill="white" transform="matrix(0.739844 0.672779 -0.672524 0.740075 253 0)"></rect></defs></svg>